<?xml version="1.0" encoding="UTF-8"?><svg id="Livello_2" xmlns="http://www.w3.org/2000/svg" viewBox="0 0 848.14 863.04"><g id="Logo_Circolare"><g id="V2"><g id="Wireless"><path d="M727.16,209.88c-18.54-26.1-40.25-49.69-64.89-70.47-38.99-32.86-83.62-57.22-132.68-72.38-37.34-11.54-75.12-17.03-112.3-17.03-1.49,0-2.99,.01-4.48,.03-1.49,.01-2.99,.04-4.48,.08-1.42,.03-2.83,.07-4.25,.12-.15,.01-.31,.01-.46,.02-1.41,.05-2.83,.11-4.24,.18-1.19,.05-2.37,.11-3.56,.18-.12,0-.23,.02-.34,.02-.83,.05-1.65,.1-2.47,.15-.08,.01-.17,.01-.25,.02-15.61,1.01-31.07,2.99-46.3,5.89l-9.27-49.12c26.21-4.99,53.02-7.57,80.13-7.57,42.06,0,84.81,6.21,127.04,19.27,55.5,17.14,106,44.71,150.13,81.92,33.99,28.66,63.05,62.04,86.68,99.52l-2.59,.44c-17.1,2.91-34.23,5.81-51.42,8.73Z"/><path d="M828.85,558.32c-14.47,46.81-36.34,90.08-65.17,128.97l-40.21-29.73c9.37-12.63,17.91-25.79,25.6-39.44h0c.81-1.44,1.6-2.88,2.39-4.32,.04-.07,.08-.14,.12-.22,.79-1.44,1.56-2.88,2.33-4.34,.74-1.39,1.46-2.78,2.17-4.18,.11-.2,.21-.39,.31-.59,.71-1.41,1.42-2.82,2.12-4.23,.7-1.4,1.38-2.81,2.06-4.23,.64-1.32,1.26-2.65,1.88-3.98,.31-.68,.63-1.36,.94-2.05,.38-.83,.76-1.66,1.13-2.49,.29-.62,.57-1.26,.84-1.89,.62-1.4,1.23-2.79,1.83-4.19,.6-1.41,1.2-2.82,1.78-4.24,.64-1.55,1.27-3.1,1.88-4.65,.03-.05,.05-.1,.06-.14,.49-1.21,.97-2.43,1.43-3.65,.25-.63,.49-1.27,.73-1.9,1.22-3.19,2.4-6.4,3.52-9.64,.39-1.11,.78-2.22,1.15-3.34,.66-1.92,1.3-3.84,1.92-5.78,.49-1.5,.96-3.01,1.43-4.52,15.17-49.06,20.24-99.64,15.11-150.37-3.26-32.15-10.51-63.46-21.63-93.56,.4-.34,.75-.76,1.03-1.22,10.4-17.28,20.71-34.4,30.98-51.45,21.16,44.63,34.38,92.04,39.36,141.19,5.82,57.43,.07,114.68-17.09,170.18Z"/><path d="M778.58,201.15c-17.1,2.91-34.23,5.81-51.42,8.73-18.54-26.1-40.25-49.69-64.89-70.47-38.99-32.86-83.62-57.22-132.68-72.38-37.34-11.54-75.12-17.03-112.3-17.03-1.49,0-2.99,.01-4.48,.03-1.49,.01-2.99,.04-4.48,.08-1.42,.03-2.84,.07-4.25,.12-.15,.01-.31,.01-.46,.02-1.41,.05-2.83,.11-4.24,.18-1.19,.05-2.38,.12-3.56,.18-.12,0-.23,.02-.34,.02-.83,.05-1.65,.1-2.47,.15-.08,.01-.17,.01-.25,.02-26.77,1.74-50.6-16.87-55.57-43.23,26.21-4.99,53.02-7.57,80.13-7.57,42.06,0,84.81,6.21,127.04,19.27,55.5,17.14,106,44.71,150.13,81.92,33.99,28.66,63.05,62.04,86.68,99.52l-2.59,.44Z"/><path d="M828.85,558.32c-14.47,46.81-36.34,90.08-65.17,128.97-14.02-10.36-21.55-26.41-21.55-42.81,0-8.98,2.26-18.05,6.94-26.36h0c.81-1.44,1.6-2.88,2.39-4.32,.04-.07,.08-.14,.12-.22,.79-1.44,1.56-2.88,2.33-4.34,.74-1.39,1.46-2.78,2.17-4.18,.11-.2,.21-.39,.31-.59,.71-1.41,1.42-2.82,2.12-4.23,.7-1.4,1.38-2.81,2.06-4.23,.64-1.32,1.26-2.65,1.88-3.98,.31-.68,.63-1.36,.94-2.05,.38-.83,.76-1.66,1.13-2.49,.29-.63,.57-1.26,.84-1.89,.62-1.4,1.23-2.79,1.83-4.19,.6-1.41,1.2-2.82,1.78-4.24,.64-1.55,1.27-3.1,1.88-4.65,.03-.05,.05-.1,.06-.14,.49-1.21,.97-2.43,1.43-3.65,.25-.63,.49-1.27,.73-1.9,1.22-3.19,2.4-6.4,3.52-9.64,.39-1.11,.78-2.22,1.15-3.34,.66-1.92,1.3-3.84,1.92-5.78,.49-1.5,.96-3.01,1.43-4.52,15.17-49.06,20.24-99.64,15.11-150.37-3.26-32.15-10.51-63.46-21.63-93.56,.4-.34,.75-.76,1.03-1.22,10.4-17.28,20.71-34.4,30.98-51.45,21.16,44.63,34.38,92.04,39.36,141.19,5.82,57.43,.07,114.68-17.09,170.18Z"/><path d="M672.8,244.83l-24.96,18.58c-1.2,.9-2.26,1.91-3.14,3-35.48-49.34-85.71-85.63-144.64-103.84-44.42-13.73-90.58-16.2-135.08-7.69l-9.26-49.07c9.37-1.78,18.85-3.16,28.4-4.12,44.12-4.47,88.09-.07,130.71,13.12,42.62,13.16,81.41,34.34,115.31,62.92,22.31,18.81,41.85,40.26,58.39,64.07-5.41-1.42-11.21-.32-15.73,3.03Z"/><path d="M733.31,528.79c-11.31,36.6-28.45,69.85-50.06,99.03l-40.19-29.71c18.34-24.78,32.88-53,42.49-84.09,16.63-53.78,16.74-110.08,.88-162.94,.99-.54,1.88-1.14,2.71-1.7,.9-.61,1.75-1.18,2.41-1.46,.35-.15,.68-.33,.99-.55l6.78-4.88c8.32-5.97,15.05-14.02,19.46-23.28l5.41-11.35c11.64,28.87,19.1,59.09,22.24,90.22,4.47,44.12,.07,88.09-13.12,130.71Z"/><path d="M571.57,336.9c-22.99-37.86-58.49-65.63-101.04-78.79-28.62-8.84-58.35-10.42-87.01-4.94l-9.25-49.09c35.83-6.83,73.8-5.24,111.03,6.26,56.3,17.41,101.2,54.5,129.47,101.4-10.81,6.32-21.63,12.62-32.47,18.92-1.22,.72-2.44,1.43-3.66,2.14l-2.24,1.3c-1.6,.93-3.21,1.87-4.83,2.8Z"/><path d="M637.78,499.26c-7.9,25.55-19.85,48.75-34.94,69.11l-40.18-29.7c11.97-16.16,21.23-34.41,27.35-54.18,5.84-18.9,8.51-38.27,8.08-57.51,12.41-11.1,23.24-24.48,32.67-40.3,3.18-5.32,6.28-10.28,9.6-14.62,10.76,40.47,10.67,84.32-2.58,127.2Z"/><path d="M485.01,387.02c-10.29-15.98-25.69-27.7-44.01-33.37-12.8-3.95-26.1-4.67-38.94-2.21l-9.27-49.15c20.75-3.96,42.26-2.81,62.98,3.59,30.42,9.4,55.86,29.13,72.52,56-14.31,8.24-28.83,16.64-43.27,25.14h-.01Z"/></g><path d="M829.4,199.37c-8.2,13.61-16.4,27.23-24.62,40.89-11.09,18.41-22.22,36.89-33.46,55.56-2.21-1.86-3.83-3.12-5.34-4.51-11.71-10.72-27.51-12.69-40.51-4.11-.13,1.96-.43,3.95-.91,5.98-.34,1.48-.6,2.93-.77,4.37l-.64,.88-8.88,18.63c-4.06,8.51-10.21,15.87-17.87,21.37l-6.78,4.88c-2.29,.96-4.46,3.04-6.74,3.92-3.15,1.22-6.66,2.91-9.8,2.81-24.32-.74-35.93,16.17-46.61,34.08-17.41,29.2-40.85,51.41-72.42,64.88-9.4,4.01-17.81,10.2-24.09,18.38-10.01,13.03-22.81,22.05-37.21,29.63-7.76,4.09-21.57,5.1-21.13,14.9,.17,3.87,1.89,6.88,4.46,9.38,6.39,6.21,11.12,13.92,14.43,22.19,1.89,4.74,3.68,9.36,5.15,13.39,.39,1.85,1.05,3.69,1.92,5.46,.02,.06,.04,.12,.05,.17,.47,1.4,1.54,3,3.09,4.76,1.74,2.15,3.75,4.13,5.45,6.32,10.5,13.47,20.58,27.15,21.2,45.28,.21,6.13,3.03,11.09,7.1,15.53,4.74,5.16,7.61,11.13,7.79,18.34,.07,2.85-.03,6.75,1.67,8.36,15.45,14.64,16.04,34.3,19.13,53.31,1.6,9.79,7.46,18.01,13.84,25.3,10.52,12.01,15.13,26.12,15.09,41.49-.04,15.09,2.66,28.78,8.57,41.06-55.69,26.17-117.88,40.79-183.48,40.79-39.45,0-77.66-5.29-113.96-15.19,2.51-1.01,4.97-2.06,7.39-3.16,9.7-4.41,20.34-5.79,31-5.82,2.24,0,4.37-1.21,5.84-3.6,10.05-16.32,23.05-30.4,33.07-46.61,1.38-2.23,.79-5.68,1.26-9.87-.84-3.03-1.11-7.73-3.28-11.25-14.82-24.01-31.13-46.87-54.9-63.05-2.78-1.89-5.77-5.55-9.19-5.95l-.23-.5-60.95,9.89c-1.51,10.13-3.19,20.08-8.12,28.88-1.15,2.06-2.48,4.06-4.03,5.98-2.1,2.59-4.11,6.19-7.75,6.02-4.93-.22-3.19-5.09-4.21-7.98-2.07-5.9-4.02-11.83-11.56-14.44-3.55,13.8,.89,26,6.78,39.92-16.17-3.53-25.12-12.87-31.55-24.8-4.36-8.09-6.77-10.43-13.44-1.24-8.94,12.3-19.45,21.75-31.31,28.69-58.3-46.48-104.31-107.75-132.34-178.12,.11-.14,.22-.27,.33-.4,2.8-3.31,11.5-5.62,3.31-11.85-3.35-2.54-6.85-5.28-10.53-6.3-3.22-9.28-6.13-18.71-8.71-28.27,.85-.24,1.71-.45,2.61-.65,16.88-3.73,28.96-13.07,38.59-26.31,8.22-11.29,15.58-23.21,22.92-37-21.65,12.37-41.49-.74-62.79-1.87,4.35-11.63,14.16-14.25,24.26-14.71,9.63-.43,15.05-4.3,18.39-13.24,4.31-11.56,13.08-19.22,24.75-23.06,13.02-4.28,24.21-12,36.24-17.99,12.03-6,18.15-14.68,23.86-25.58,24.36-46.47,59.62-77.21,114.98-78.93,11.37-.35,21.41-5.53,30.4-12.74,8.75-7.01,17.84-13.79,30.11-12.35,.74,.09,1.4,.09,2.01,.05,2.23,.9,9.91,4.94,15.79,19.35,.29,.71,.68,1.48,1.13,2.3,.41,1.17,.86,2.35,1.36,3.54,4.71,11,7.47,21.39,19.48,26.77,3.53,1.58,6.61,6.03,8.1,9.85,3.6,9.18,9.93,15.02,18.27,19.82,6.03,3.48,12.09,6.81,7.98,17.11-1.8,4.51-1.3,7.98,.75,9.95l.54,20.13,.11,.04c-.13,2.81,.9,5.96,2.94,9.5,6.53,11.34,2.02,18.36-9.11,22.51-3.84,1.43-7.89,2.32-12.05,3.52,6.81,3.86,12.6,6.16,20.02,.61,5.56-4.17,12.49-6.23,19.36-6.05,23.02-10.2,45.01-22.52,66.73-35.52,24.73-14.8,49.72-29.18,74.69-43.56,12.18-7.01,24.36-14.02,36.5-21.09,1.97-1.15,3.95-2.29,5.92-3.45,16.33-9.49,32.65-19.02,48.96-28.54,3.11-5.75,5.47-12.39,7.41-19.82l4.57-12.32c.43-.52,.79-1.12,1.07-1.83,.78-2.04,2.24-3.74,3.99-5.05l24.95-18.57c3.54-2.63,8.13-3.35,12.32-1.96,4.77,1.57,9.88,2.16,14.59,1.52,4.66-.62,9.35,.82,12.67,4.16l.36,.37c.07,.8,.12,1.33,.19,2.12,.11-.15,.24-.3,.35-.46,6.51-9.27,7.23-20.69,2.08-34.51-.28-.76-.4-1.59-.87-3.48,22.7-3.86,45.3-7.69,67.86-11.52,14.27-2.43,28.53-4.85,42.79-7.27,.42,.52,.84,1.04,1.27,1.56Z"/></g></g></svg>