<?xml version="1.0" encoding="UTF-8"?><svg id="Livello_2" xmlns="http://www.w3.org/2000/svg" xmlns:xlink="http://www.w3.org/1999/xlink" viewBox="0 0 1062.74 127.08"><defs><style>.cls-1{fill:url(#Sfumatura_senza_nome_22-10);}.cls-2{fill:url(#Sfumatura_senza_nome_22-11);}.cls-3{fill:url(#Sfumatura_senza_nome_22-9);}.cls-4{fill:url(#Sfumatura_senza_nome_22-8);}.cls-5{fill:url(#Sfumatura_senza_nome_22-4);}.cls-6{fill:url(#Sfumatura_senza_nome_22-7);}.cls-7{fill:url(#Sfumatura_senza_nome_22-6);}.cls-8{fill:url(#Sfumatura_senza_nome_22-5);}.cls-9{fill:url(#Sfumatura_senza_nome_22-3);}.cls-10{fill:url(#Sfumatura_senza_nome_22-2);}.cls-11{fill:url(#Sfumatura_senza_nome_22);}</style><linearGradient id="Sfumatura_senza_nome_22" x1="108.51" y1="117.91" x2="-.6" y2="54.91" gradientTransform="matrix(1, 0, 0, 1, 0, 0)" gradientUnits="userSpaceOnUse"><stop offset="0" stop-color="#000"/><stop offset="1" stop-color="#666"/></linearGradient><linearGradient id="Sfumatura_senza_nome_22-2" x1="279.69" y1="116.22" x2="180.72" y2="59.08" xlink:href="#Sfumatura_senza_nome_22"/><linearGradient id="Sfumatura_senza_nome_22-3" x1="397.35" y1="115.62" x2="281.15" y2="48.53" xlink:href="#Sfumatura_senza_nome_22"/><linearGradient id="Sfumatura_senza_nome_22-4" x1="450.64" y1="18.9" x2="425.26" y2="4.25" xlink:href="#Sfumatura_senza_nome_22"/><linearGradient id="Sfumatura_senza_nome_22-5" x1="548.6" y1="109.85" x2="484.34" y2="72.74" xlink:href="#Sfumatura_senza_nome_22"/><linearGradient id="Sfumatura_senza_nome_22-6" x1="617.28" y1="109.85" x2="553.02" y2="72.74" xlink:href="#Sfumatura_senza_nome_22"/><linearGradient id="Sfumatura_senza_nome_22-7" x1="689.62" y1="120.97" x2="630.44" y2="86.8" xlink:href="#Sfumatura_senza_nome_22"/><linearGradient id="Sfumatura_senza_nome_22-8" x1="774.53" y1="99.55" x2="731.78" y2="74.87" xlink:href="#Sfumatura_senza_nome_22"/><linearGradient id="Sfumatura_senza_nome_22-9" x1="841.44" y1="18.9" x2="816.06" y2="4.25" xlink:href="#Sfumatura_senza_nome_22"/><linearGradient id="Sfumatura_senza_nome_22-10" x1="948.34" y1="101.16" x2="849.47" y2="44.08" xlink:href="#Sfumatura_senza_nome_22"/><linearGradient id="Sfumatura_senza_nome_22-11" x1="1053.6" y1="124.39" x2="967.48" y2="74.67" xlink:href="#Sfumatura_senza_nome_22"/></defs><g id="Logo_Completo_Gradiente"><g id="Testo___Overlay"><g id="Testo"><path d="M.01,88.92c-.18-3.06,1.44-4.68,4.32-4.68H20.35c2.88,0,4.32,1.62,4.5,4.5,1.08,10.44,5.94,14.4,17.64,14.4h35.28c13.68,0,18.54-3.42,18.54-13.86s-4.68-12.78-16.74-13.68l-40.14-3.06C11.71,70.38,.73,61.38,.73,37.62S12.43,0,43.75,0h32.94c28.44,0,41.22,12.78,42.48,38.16,.18,3.06-1.44,4.68-4.32,4.68h-16.2c-2.88,0-4.32-1.62-4.5-4.5-1.08-10.44-5.94-14.4-17.46-14.4H44.11c-13.86,0-18.72,3.24-18.72,13.86,0,9.9,4.68,12.42,16.74,13.32l40.14,3.06c27.36,2.16,38.88,11.7,38.88,35.28s-11.7,37.62-43.2,37.62H42.49C13.87,127.07,1.27,114.3,.01,88.92Z"/><path d="M125.47,41.2v-7.07c0-.97,.29-1.64,1.16-2.19l22.98-14.31c2.84-1.77,3.7-2.56,3.7-4.32,0-2.38-1.04-2.92-3.82-2.92h-10.3c-2.2,0-3.41,.43-3.41,4.14v.24c0,1.16-.64,1.83-1.74,1.83h-6.83c-1.1,0-1.74-.3-1.74-.85v-.85C125.47,6.12,128.77,.02,139.18,.02h10.59c9.78,0,13.72,4.93,13.72,12.42s-2.78,9.44-10.94,14.31l-9.9,5.91h18.98c1.1,0,1.74,.67,1.74,1.83v6.7c0,1.16-.64,1.83-1.74,1.83h-34.43c-1.1,0-1.74-.67-1.74-1.83Z"/><path d="M247.15,123.65l-8.46-18.54h-72.72l-8.64,18.54c-1.08,2.16-2.88,3.42-5.4,3.42h-18.18c-3.42,0-4.86-2.16-3.42-5.22L187.57,3.24c1.08-2.16,2.7-3.24,5.22-3.24h19.08c2.52,0,4.14,1.08,5.22,3.24l57.06,118.62c1.44,3.06,0,5.22-3.42,5.22h-18.18c-2.52,0-4.32-1.08-5.4-3.42Zm-17.82-39.06l-26.82-58.5-27.18,58.5h54Z"/><path d="M280.09,83.34V43.92c0-27,12.78-43.92,42.66-43.92h41.4c28.08,0,41.04,14.04,42.48,38.16,.18,3.06-1.44,4.68-4.32,4.68h-16.2c-2.88,0-4.32-1.62-4.5-4.5-1.08-11.7-6.3-14.4-17.46-14.4h-41.4c-12.42,0-17.64,3.42-17.64,19.08v41.22c0,15.48,5.58,18.9,17.64,18.9h41.4c12.06,0,17.64-3.42,17.64-18.9v-6.12h-30.96c-2.88,0-4.5-1.62-4.5-4.5v-12.96c0-2.88,1.62-4.5,4.5-4.5h51.48c2.88,0,4.5,1.62,4.5,4.5v22.68c0,26.82-12.78,43.74-42.66,43.74h-41.4c-29.88,0-42.66-16.92-42.66-43.74Z"/><path d="M426.07,18.94V4.21c0-2.68,1.62-4.18,4.5-4.18h14.76c2.88,0,4.5,1.51,4.5,4.18v14.73c0,2.68-1.62,4.18-4.5,4.18h-14.76c-2.88,0-4.5-1.51-4.5-4.18Zm0,103.95V37.19c0-2.68,1.62-4.18,4.5-4.18h14.76c2.88,0,4.5,1.51,4.5,4.18V122.89c0,2.68-1.62,4.18-4.5,4.18h-14.76c-2.88,0-4.5-1.51-4.5-4.18Z"/><path d="M604.55,47.34c2.88,0,4.5-1.62,4.5-4.5v-12.42c0-2.88-1.62-4.5-4.5-4.5h-36.72V4.5c0-2.88-1.62-4.5-4.5-4.5h-7.38c-2.88,0-4.5,1.62-4.5,4.86-.18,19.08-2.16,20.88-14.76,21.06-.15,0-.27,.02-.41,.03-.14,0-.27-.03-.41-.03h-36.72V4.5c0-2.88-1.62-4.5-4.5-4.5h-7.38c-2.88,0-4.5,1.62-4.5,4.86-.18,19.08-2.16,20.88-14.76,21.06-2.88,0-4.5,1.62-4.5,4.5v12.42c0,2.88,1.62,4.5,4.5,4.5h7.56v41.58c0,25.2,7.38,38.16,39.96,38.16h20.34c2.88,0,4.5-1.62,4.5-4.5v-12.6c0-2.88-1.62-4.5-4.5-4.5h-20.34c-12.78,0-16.38-3.24-16.38-14.04V47.34h36.72c.15,0,.27-.02,.41-.03,.14,0,.27,.03,.41,.03h7.56v41.58c0,25.2,7.38,38.16,39.96,38.16h20.34c2.88,0,4.5-1.62,4.5-4.5v-12.6c0-2.88-1.62-4.5-4.5-4.5h-20.34c-12.78,0-16.38-3.24-16.38-14.04V47.34h36.72Z"/><path d="M617.79,98.46c0-20.52,7.74-28.08,32.22-30.6l37.8-3.78c4.32-.54,5.76-2.7,5.76-6.48,0-7.38-3.24-9.54-12.6-9.54h-50.58c-2.88,0-4.5-1.62-4.5-4.5v-13.14c0-2.88,1.62-4.5,4.5-4.5h51.12c25.92,0,35.82,9.18,35.82,29.7V122.57c0,2.88-1.62,4.5-4.5,4.5h-14.76c-2.88,0-4.5-1.62-4.5-4.5v-8.46c-4.68,8.64-11.88,12.96-27.54,12.96h-10.44c-24.12,0-37.8-8.28-37.8-28.62Zm59.76,7.2c11.88,0,16.02-3.96,16.02-15.48v-8.64l-39.6,3.96c-9.54,.9-12.24,3.6-12.24,10.62,0,6.48,4.68,9.54,13.68,9.54h22.14Z"/><path d="M800.3,25.92c2.88,0,4.5,1.62,4.5,4.5v13.14c0,2.88-1.62,4.5-4.5,4.5h-25.92c-9.72,0-14.04,2.52-14.04,15.3v59.22c0,2.88-1.62,4.5-4.5,4.5h-14.76c-2.88,0-4.5-1.62-4.5-4.5V30.42c0-2.88,1.62-4.5,4.5-4.5h14.76c2.88,0,4.5,1.62,4.5,4.5v7.2c4.32-7.56,12.24-11.7,26.1-11.7h13.86Z"/><path d="M816.87,18.94V4.21c0-2.68,1.62-4.18,4.5-4.18h14.76c2.88,0,4.5,1.51,4.5,4.18v14.73c0,2.68-1.62,4.18-4.5,4.18h-14.76c-2.88,0-4.5-1.51-4.5-4.18Zm0,103.95V37.19c0-2.68,1.62-4.18,4.5-4.18h14.76c2.88,0,4.5,1.51,4.5,4.18V122.89c0,2.68-1.62,4.18-4.5,4.18h-14.76c-2.88,0-4.5-1.51-4.5-4.18Z"/><path d="M939.24,25.92h14.76c2.88,0,4.5,1.62,4.5,4.5V122.57c0,2.88-1.62,4.5-4.5,4.5h-14.76c-2.88,0-4.5-1.62-4.5-4.5v-7.2c-4.32,7.56-12.24,11.7-26.1,11.7h-13.14c-28.8,0-37.26-14.22-37.26-39.96V30.42c0-2.88,1.62-4.5,4.5-4.5h14.76c2.88,0,4.5,1.62,4.5,4.5v59.22c0,12.6,3.24,15.3,14.04,15.3h24.66c9.72,0,14.04-2.34,14.04-15.3V30.42c0-2.88,1.62-4.5,4.5-4.5Z"/><path d="M971.12,122.57v-13.14c0-2.88,1.62-4.5,4.5-4.5h49.5c9.9,0,13.68-2.16,13.68-8.46s-2.7-7.92-12.24-9l-27.72-3.06c-22.5-2.52-29.88-11.16-29.88-29.88s11.52-28.62,36.18-28.62h48.24c2.88,0,4.5,1.62,4.5,4.5v13.14c0,2.88-1.62,4.5-4.5,4.5h-47.7c-9,0-13.14,1.98-13.14,8.82,0,5.94,2.52,7.74,10.8,8.64l27.18,3.06c25.2,3.06,32.22,12.24,32.22,30.42,0,20.34-11.34,28.08-37.8,28.08h-49.32c-2.88,0-4.5-1.62-4.5-4.5Z"/></g><g id="Overlay"><path class="cls-11" d="M121.15,89.46c0,24.3-11.7,37.62-43.2,37.62H42.49C13.87,127.08,1.27,114.3,.01,88.92c-.18-3.06,1.44-4.68,4.32-4.68H20.35c2.84,0,4.28,1.58,4.49,4.39,.01,.03,.01,.07,.01,.11,1.08,10.44,5.94,14.4,17.64,14.4h35.28c13.68,0,18.54-3.42,18.54-13.86s-4.68-12.78-16.74-13.68l-13.22-1.01-26.92-2.05c-19.17-1.49-30.33-6.26-35.39-16.91,1.02-17.58,15.6-31.53,33.44-31.53,.5,0,.99,.01,1.48,.03-9.94,.82-13.57,4.49-13.57,13.67,0,9.9,4.68,12.42,16.74,13.32l28.58,2.18,11.56,.88c27.36,2.16,38.88,11.7,38.88,35.28Z"/><path class="cls-10" d="M271.4,127.05l-20.13-.07c-1.87-.32-3.24-1.39-4.13-3.32l-8.45-18.54h-72.72l-8.64,18.54,18.14-39.06h53.85l-26.74-58.35L214.52,.54c1.1,.52,1.93,1.42,2.57,2.7l57.05,118.62c1.34,2.85,.19,4.92-2.74,5.19Z"/><path class="cls-9" d="M406.8,60.66v22.68c0,26.82-12.78,43.74-42.65,43.74h-41.4c-29.88,0-42.66-16.92-42.66-43.74v-29.94c4.12-16.82,19.3-29.3,37.39-29.3,.35,0,.7,0,1.05,.01-9.39,.84-13.42,5.16-13.42,18.91v41.22c0,8.76,1.79,13.66,5.53,16.25,2.86,2,6.88,2.65,12.11,2.65h41.4c12.05,0,17.63-3.42,17.63-18.9v-6.12h-30.95c-2.88,0-4.5-1.62-4.5-4.5v-12.96c0-2.88,1.62-4.5,4.5-4.5h51.47c2.88,0,4.5,1.62,4.5,4.5Z"/><path class="cls-5" d="M430.57,23.12h14.76c2.88,0,4.5-1.51,4.5-4.18V4.21c0-2.68-1.62-4.18-4.5-4.18h-14.76c-2.88,0-4.5,1.51-4.5,4.18v14.73c0,2.68,1.62,4.18,4.5,4.18Z"/><g id="tt"><path class="cls-8" d="M535.86,105.48h-20.34c-12.78,0-16.38-3.24-16.38-14.04V48.1h-.58v40.82c0,24.64,7.05,37.58,37.82,38.14h.02c2.54-.19,3.96-1.79,3.96-4.48v-12.6c0-2.88-1.62-4.5-4.5-4.5Z"/><path class="cls-7" d="M604.54,105.48h-20.34c-12.78,0-16.38-3.24-16.38-14.04V48.1h-.58v40.82c0,24.64,7.05,37.58,37.82,38.14h.02c2.54-.19,3.96-1.79,3.96-4.48v-12.6c0-2.88-1.62-4.5-4.5-4.5Z"/></g><path class="cls-6" d="M693.52,91.9c-.42,10.19-4.72,13.76-15.98,13.76h-22.14c-8.99,0-13.67-3.06-13.67-9.54,0-5.43,1.63-8.27,6.78-9.7,.17-.09,.33-.18,.49-.27-11.75,2.84-24.75,8.77-30.18,21.12,3.59,13.96,16.49,19.81,36.76,19.81h10.44c15.66,0,22.86-4.32,27.54-12.96,0,0,.3-16.56,.26-26.07l-.3,3.85Z"/><path class="cls-4" d="M768.77,48.5c-5.79,1.15-8.43,4.88-8.43,14.86v59.22c0,2.88-1.62,4.5-4.5,4.5h-14.76c-2.88,0-4.5-1.62-4.5-4.5v-54.98c3.93-11.35,14.71-19.5,27.4-19.5,1.63,0,3.23,.13,4.79,.4Z"/><path class="cls-3" d="M821.37,23.12h14.76c2.88,0,4.5-1.51,4.5-4.18V4.21c0-2.68-1.62-4.18-4.5-4.18h-14.76c-2.88,0-4.5,1.51-4.5,4.18v14.73c0,2.68,1.62,4.18,4.5,4.18Z"/><path class="cls-1" d="M934.98,28.7V124.3c-.16-.51-.24-1.08-.24-1.72v-7.2c-4.32,7.56-12.24,11.7-26.1,11.7h-13.14c-28.8,0-37.26-14.22-37.26-39.96V30.42c0-2.88,1.62-4.5,4.5-4.5h14.76c2.88,0,4.5,1.62,4.5,4.5v59.22c0,12.6,3.24,15.3,14.04,15.3h24.66c9.72,0,14.04-2.34,14.04-15.3V30.42c0-.64,.08-1.21,.24-1.72Z"/><path class="cls-2" d="M1062.73,99c0,20.34-11.33,28.08-37.79,28.08h-49.32c-2.88,0-4.5-1.62-4.5-4.5v-13.14c0-2.88,1.62-4.5,4.5-4.5h49.5c9.9,0,13.68-2.16,13.68-8.46s-2.7-7.92-12.24-9l-1.9-.21-25.82-2.85c-15.07-1.69-23.35-6.12-27.17-14.48,2.8-12.5,13.97-21.84,27.31-21.84,.92,0,1.83,.04,2.73,.13-6.26,.59-9.17,2.91-9.17,8.65s2.52,7.74,10.8,8.64l22.46,2.53,4.72,.53c25.19,3.06,32.21,12.24,32.21,30.42Z"/></g></g></g></svg>