<?xml version="1.0" encoding="UTF-8"?><svg id="LogoBanner" xmlns="http://www.w3.org/2000/svg" xmlns:xlink="http://www.w3.org/1999/xlink" viewBox="0 0 1150 320"><defs><style>.cls-1{fill:#3554ef;}.cls-2{fill:url(#Sfumatura_senza_nome_91-14);}.cls-3{fill:url(#Sfumatura_senza_nome_91-15);}.cls-4{fill:url(#Sfumatura_senza_nome_91-17);}.cls-5{fill:url(#Sfumatura_senza_nome_91-18);}.cls-6{fill:url(#Sfumatura_senza_nome_91-19);}.cls-7{fill:url(#Sfumatura_senza_nome_91-13);}.cls-8{fill:url(#Sfumatura_senza_nome_91-12);}.cls-9{fill:url(#Sfumatura_senza_nome_91-16);}.cls-10{fill:url(#Sfumatura_senza_nome_91-10);}.cls-11{fill:url(#Sfumatura_senza_nome_91-11);}.cls-12{fill:url(#Sfumatura_senza_nome_91-2);}.cls-13{fill:url(#Sfumatura_senza_nome_91-4);}.cls-14{fill:url(#Sfumatura_senza_nome_91-3);}.cls-15{fill:url(#Sfumatura_senza_nome_91-5);}.cls-16{fill:url(#Sfumatura_senza_nome_91-6);}.cls-17{fill:url(#Sfumatura_senza_nome_91-8);}.cls-18{fill:url(#Sfumatura_senza_nome_91-7);}.cls-19{fill:url(#Sfumatura_senza_nome_91-9);}.cls-20{fill:url(#Sfumatura_senza_nome_91);}</style><linearGradient id="Sfumatura_senza_nome_91" x1="160.51" y1="87.14" x2="259.56" y2="87.14" gradientTransform="matrix(1, 0, 0, 1, 0, 0)" gradientUnits="userSpaceOnUse"><stop offset="0" stop-color="#3554ef"/><stop offset="1" stop-color="#1521af"/></linearGradient><linearGradient id="Sfumatura_senza_nome_91-2" x1="246.69" y1="167.94" x2="274.5" y2="167.94" xlink:href="#Sfumatura_senza_nome_91"/><linearGradient id="Sfumatura_senza_nome_91-3" x1="250.85" y1="167.94" x2="274.5" y2="167.94" xlink:href="#Sfumatura_senza_nome_91"/><linearGradient id="Sfumatura_senza_nome_91-4" x1="164.65" y1="104.6" x2="238.89" y2="104.6" xlink:href="#Sfumatura_senza_nome_91"/><linearGradient id="Sfumatura_senza_nome_91-5" x1="228.75" y1="168.1" x2="252.19" y2="168.1" xlink:href="#Sfumatura_senza_nome_91"/><linearGradient id="Sfumatura_senza_nome_91-6" x1="168.78" y1="123.62" x2="222.44" y2="123.62" xlink:href="#Sfumatura_senza_nome_91"/><linearGradient id="Sfumatura_senza_nome_91-7" x1="210.81" y1="168.63" x2="229.87" y2="168.63" xlink:href="#Sfumatura_senza_nome_91"/><linearGradient id="Sfumatura_senza_nome_91-8" x1="172.92" y1="140.37" x2="203.15" y2="140.37" xlink:href="#Sfumatura_senza_nome_91"/><linearGradient id="Sfumatura_senza_nome_91-9" x1="434.93" y1="195.95" x2="362.78" y2="154.29" xlink:href="#Sfumatura_senza_nome_91"/><linearGradient id="Sfumatura_senza_nome_91-10" x1="548.12" y1="194.84" x2="482.68" y2="157.05" xlink:href="#Sfumatura_senza_nome_91"/><linearGradient id="Sfumatura_senza_nome_91-11" x1="625.92" y1="194.44" x2="549.08" y2="150.07" xlink:href="#Sfumatura_senza_nome_91"/><linearGradient id="Sfumatura_senza_nome_91-12" x1="661.16" y1="130.48" x2="644.38" y2="120.8" xlink:href="#Sfumatura_senza_nome_91"/><linearGradient id="Sfumatura_senza_nome_91-13" x1="725.93" y1="190.62" x2="683.44" y2="166.09" xlink:href="#Sfumatura_senza_nome_91"/><linearGradient id="Sfumatura_senza_nome_91-14" x1="771.35" y1="190.62" x2="728.85" y2="166.09" xlink:href="#Sfumatura_senza_nome_91"/><linearGradient id="Sfumatura_senza_nome_91-15" x1="819.18" y1="197.98" x2="780.05" y2="175.38" xlink:href="#Sfumatura_senza_nome_91"/><linearGradient id="Sfumatura_senza_nome_91-16" x1="875.32" y1="183.81" x2="847.06" y2="167.49" xlink:href="#Sfumatura_senza_nome_91"/><linearGradient id="Sfumatura_senza_nome_91-17" x1="919.56" y1="130.48" x2="902.78" y2="120.8" xlink:href="#Sfumatura_senza_nome_91"/><linearGradient id="Sfumatura_senza_nome_91-18" x1="990.25" y1="184.88" x2="924.87" y2="147.13" xlink:href="#Sfumatura_senza_nome_91"/><linearGradient id="Sfumatura_senza_nome_91-19" x1="1059.85" y1="200.24" x2="1002.91" y2="167.36" xlink:href="#Sfumatura_senza_nome_91"/></defs><g id="Banner_V2_Blu_v2"><g id="V1"><g id="Wireless"><path class="cls-20" d="M247.51,110.55c-4.14-5.82-8.98-11.09-14.48-15.72-8.7-7.33-18.65-12.77-29.6-16.15-8.33-2.57-16.76-3.8-25.05-3.8-.33,0-.67,0-1,0-.33,0-.67,0-1,.02-.32,0-.63,.02-.95,.03-.03,0-.07,0-.1,0-.31,.01-.63,.02-.95,.04-.27,.01-.53,.02-.79,.04-.03,0-.05,0-.08,0-.19,.01-.37,.02-.55,.03-.02,0-.04,0-.06,0-3.48,.23-6.93,.67-10.33,1.31l-2.07-10.96c5.85-1.11,11.83-1.69,17.88-1.69,9.38,0,18.92,1.39,28.34,4.3,12.38,3.82,23.65,9.97,33.49,18.28,7.58,6.39,14.07,13.84,19.34,22.2l-.58,.1c-3.81,.65-7.64,1.3-11.47,1.95Z"/><path class="cls-12" d="M270.2,188.29c-3.23,10.44-8.11,20.1-14.54,28.77l-8.97-6.63c2.09-2.82,4-5.75,5.71-8.8h0c.18-.32,.36-.64,.53-.96,0-.02,.02-.03,.03-.05,.18-.32,.35-.64,.52-.97,.17-.31,.33-.62,.48-.93,.02-.04,.05-.09,.07-.13,.16-.31,.32-.63,.47-.94,.16-.31,.31-.63,.46-.94,.14-.29,.28-.59,.42-.89,.07-.15,.14-.3,.21-.46,.08-.19,.17-.37,.25-.56,.06-.14,.13-.28,.19-.42,.14-.31,.27-.62,.41-.93,.13-.31,.27-.63,.4-.95,.14-.35,.28-.69,.42-1.04,0-.01,.01-.02,.01-.03,.11-.27,.22-.54,.32-.81,.06-.14,.11-.28,.16-.42,.27-.71,.54-1.43,.79-2.15,.09-.25,.17-.5,.26-.75,.15-.43,.29-.86,.43-1.29,.11-.33,.21-.67,.32-1.01,3.38-10.94,4.52-22.23,3.37-33.55-.73-7.17-2.34-14.16-4.83-20.87,.09-.08,.17-.17,.23-.27,2.32-3.85,4.62-7.67,6.91-11.48,4.72,9.96,7.67,20.53,8.78,31.5,1.3,12.81,.02,25.58-3.81,37.97Z"/><path class="cls-20" d="M258.98,108.61c-3.81,.65-7.64,1.3-11.47,1.95-4.14-5.82-8.98-11.09-14.48-15.72-8.7-7.33-18.65-12.77-29.6-16.15-8.33-2.57-16.76-3.8-25.05-3.8-.33,0-.67,0-1,0-.33,0-.67,0-1,.02-.32,0-.63,.02-.95,.03-.03,0-.07,0-.1,0-.31,.01-.63,.02-.95,.04-.27,.01-.53,.03-.79,.04-.03,0-.05,0-.08,0-.19,.01-.37,.02-.55,.03-.02,0-.04,0-.06,0-5.97,.39-11.29-3.76-12.4-9.64,5.85-1.11,11.83-1.69,17.88-1.69,9.38,0,18.92,1.39,28.34,4.3,12.38,3.82,23.65,9.97,33.49,18.28,7.58,6.39,14.07,13.84,19.34,22.2l-.58,.1Z"/><path class="cls-14" d="M270.2,188.29c-3.23,10.44-8.11,20.1-14.54,28.77-3.13-2.31-4.81-5.89-4.81-9.55,0-2,.5-4.03,1.55-5.88h0c.18-.32,.36-.64,.53-.96,0-.02,.02-.03,.03-.05,.18-.32,.35-.64,.52-.97,.17-.31,.33-.62,.48-.93,.02-.04,.05-.09,.07-.13,.16-.31,.32-.63,.47-.94,.16-.31,.31-.63,.46-.94,.14-.29,.28-.59,.42-.89,.07-.15,.14-.3,.21-.46,.08-.19,.17-.37,.25-.56,.06-.14,.13-.28,.19-.42,.14-.31,.27-.62,.41-.93,.13-.31,.27-.63,.4-.95,.14-.35,.28-.69,.42-1.04,0-.01,.01-.02,.01-.03,.11-.27,.22-.54,.32-.81,.06-.14,.11-.28,.16-.42,.27-.71,.54-1.43,.79-2.15,.09-.25,.17-.5,.26-.75,.15-.43,.29-.86,.43-1.29,.11-.33,.21-.67,.32-1.01,3.38-10.94,4.52-22.23,3.37-33.55-.73-7.17-2.34-14.16-4.83-20.87,.09-.08,.17-.17,.23-.27,2.32-3.85,4.62-7.67,6.91-11.48,4.72,9.96,7.67,20.53,8.78,31.5,1.3,12.81,.02,25.58-3.81,37.97Z"/><path class="cls-13" d="M235.38,118.35l-5.57,4.15c-.27,.2-.5,.43-.7,.67-7.92-11.01-19.12-19.1-32.27-23.17-9.91-3.06-20.21-3.61-30.13-1.72l-2.07-10.95c2.09-.4,4.21-.7,6.34-.92,9.84-1,19.65-.02,29.16,2.93,9.51,2.94,18.16,7.66,25.72,14.04,4.98,4.2,9.34,8.98,13.03,14.29-1.21-.32-2.5-.07-3.51,.68Z"/><path class="cls-15" d="M248.88,181.7c-2.52,8.17-6.35,15.58-11.17,22.09l-8.97-6.63c4.09-5.53,7.34-11.82,9.48-18.76,3.71-12,3.73-24.56,.2-36.35,.22-.12,.42-.25,.6-.38,.2-.14,.39-.26,.54-.33,.08-.03,.15-.07,.22-.12l1.51-1.09c1.86-1.33,3.36-3.13,4.34-5.19l1.21-2.53c2.6,6.44,4.26,13.18,4.96,20.13,1,9.84,.02,19.65-2.93,29.16Z"/><path class="cls-16" d="M212.8,138.89c-5.13-8.45-13.05-14.64-22.54-17.58-6.38-1.97-13.02-2.32-19.41-1.1l-2.06-10.95c7.99-1.52,16.46-1.17,24.77,1.4,12.56,3.88,22.58,12.16,28.88,22.62-2.41,1.41-4.83,2.82-7.24,4.22-.27,.16-.54,.32-.82,.48l-.5,.29c-.36,.21-.72,.42-1.08,.62Z"/><path class="cls-18" d="M227.57,175.11c-1.76,5.7-4.43,10.88-7.79,15.42l-8.96-6.63c2.67-3.61,4.74-7.68,6.1-12.09,1.3-4.22,1.9-8.54,1.8-12.83,2.77-2.48,5.18-5.46,7.29-8.99,.71-1.19,1.4-2.29,2.14-3.26,2.4,9.03,2.38,18.81-.58,28.38Z"/><path class="cls-17" d="M193.49,150.07c-2.3-3.56-5.73-6.18-9.82-7.44-2.86-.88-5.82-1.04-8.69-.49l-2.07-10.96c4.63-.88,9.43-.63,14.05,.8,6.79,2.1,12.46,6.5,16.18,12.49-3.19,1.84-6.43,3.71-9.65,5.61h0Z"/></g><path class="cls-1" d="M270.32,108.21c-1.83,3.04-3.66,6.07-5.49,9.12-2.47,4.11-4.96,8.23-7.46,12.39-.49-.41-.85-.7-1.19-1.01-2.61-2.39-6.14-2.83-9.04-.92-.03,.44-.1,.88-.2,1.33-.08,.33-.13,.65-.17,.97l-.14,.2-1.98,4.16c-.91,1.9-2.28,3.54-3.99,4.77l-1.51,1.09c-.51,.21-.99,.68-1.5,.87-.7,.27-1.49,.65-2.19,.63-5.43-.17-8.02,3.61-10.4,7.6-3.88,6.51-9.11,11.47-16.16,14.47-2.1,.89-3.97,2.28-5.37,4.1-2.23,2.91-5.09,4.92-8.3,6.61-1.73,.91-4.81,1.14-4.71,3.32,.04,.86,.42,1.53,.99,2.09,1.43,1.39,2.48,3.11,3.22,4.95,.42,1.06,.82,2.09,1.15,2.99,.09,.41,.23,.82,.43,1.22,0,.01,0,.03,.01,.04,.1,.31,.34,.67,.69,1.06,.39,.48,.84,.92,1.22,1.41,2.34,3.01,4.59,6.06,4.73,10.1,.05,1.37,.68,2.47,1.58,3.46,1.06,1.15,1.7,2.48,1.74,4.09,.02,.64,0,1.51,.37,1.87,3.45,3.27,3.58,7.65,4.27,11.89,.36,2.18,1.66,4.02,3.09,5.64,2.35,2.68,3.38,5.83,3.37,9.26,0,3.37,.59,6.42,1.91,9.16-12.42,5.84-26.3,9.1-40.93,9.1-8.8,0-17.33-1.18-25.42-3.39,.56-.23,1.11-.46,1.65-.7,2.16-.98,4.54-1.29,6.92-1.3,.5,0,.97-.27,1.3-.8,2.24-3.64,5.14-6.78,7.38-10.4,.31-.5,.18-1.27,.28-2.2-.19-.68-.25-1.72-.73-2.51-3.31-5.36-6.94-10.46-12.25-14.07-.62-.42-1.29-1.24-2.05-1.33l-.05-.11-13.6,2.21c-.34,2.26-.71,4.48-1.81,6.44-.26,.46-.55,.91-.9,1.33-.47,.58-.92,1.38-1.73,1.34-1.1-.05-.71-1.14-.94-1.78-.46-1.32-.9-2.64-2.58-3.22-.79,3.08,.2,5.8,1.51,8.91-3.61-.79-5.6-2.87-7.04-5.53-.97-1.8-1.51-2.33-3-.28-1.99,2.74-4.34,4.85-6.98,6.4-13.01-10.37-23.27-24.04-29.52-39.74,.02-.03,.05-.06,.07-.09,.62-.74,2.57-1.25,.74-2.64-.75-.57-1.53-1.18-2.35-1.41-.72-2.07-1.37-4.17-1.94-6.31,.19-.05,.38-.1,.58-.15,3.77-.83,6.46-2.92,8.61-5.87,1.83-2.52,3.48-5.18,5.11-8.25-4.83,2.76-9.26-.17-14.01-.42,.97-2.59,3.16-3.18,5.41-3.28,2.15-.1,3.36-.96,4.1-2.95,.96-2.58,2.92-4.29,5.52-5.14,2.9-.95,5.4-2.68,8.08-4.01,2.68-1.34,4.05-3.27,5.32-5.71,5.43-10.37,13.3-17.22,25.65-17.61,2.54-.08,4.78-1.23,6.78-2.84,1.95-1.56,3.98-3.08,6.72-2.76,.17,.02,.31,.02,.45,.01,.5,.2,2.21,1.1,3.52,4.32,.06,.16,.15,.33,.25,.51,.09,.26,.19,.52,.3,.79,1.05,2.45,1.67,4.77,4.35,5.97,.79,.35,1.47,1.35,1.81,2.2,.8,2.05,2.22,3.35,4.08,4.42,1.35,.78,2.7,1.52,1.78,3.82-.4,1.01-.29,1.78,.17,2.22l.12,4.49h.02c-.03,.64,.2,1.34,.66,2.13,1.46,2.53,.45,4.1-2.03,5.02-.86,.32-1.76,.52-2.69,.79,1.52,.86,2.81,1.37,4.47,.14,1.24-.93,2.79-1.39,4.32-1.35,5.14-2.28,10.04-5.02,14.89-7.92,5.52-3.3,11.09-6.51,16.66-9.72,2.72-1.56,5.43-3.13,8.14-4.7,.44-.26,.88-.51,1.32-.77,3.64-2.12,7.28-4.24,10.92-6.37,.69-1.28,1.22-2.76,1.65-4.42l1.02-2.75c.1-.12,.18-.25,.24-.41,.17-.46,.5-.83,.89-1.13l5.57-4.14c.79-.59,1.81-.75,2.75-.44,1.06,.35,2.2,.48,3.25,.34,1.04-.14,2.09,.18,2.83,.93l.08,.08c.02,.18,.03,.3,.04,.47,.02-.03,.05-.07,.08-.1,1.45-2.07,1.61-4.62,.46-7.7-.06-.17-.09-.35-.19-.78,5.06-.86,10.11-1.72,15.14-2.57,3.18-.54,6.36-1.08,9.55-1.62,.09,.12,.19,.23,.28,.35Z"/><path class="cls-1" d="M216.9,242.12c-12.1,5.69-25.08,8.57-38.56,8.57-8.13,0-16.19-1.07-23.96-3.19-11.92-3.25-22.89-8.83-32.61-16.58-12.37-9.86-21.99-22.81-27.82-37.44-.51-1.28-.99-2.58-1.44-3.88h0v-.02c-.68-1.95-1.29-3.95-1.83-5.93-2.08-7.7-3.13-15.69-3.13-23.75,0-12.26,2.4-24.15,7.13-35.34,4.57-10.81,11.12-20.52,19.46-28.86,8.34-8.34,18.05-14.89,28.86-19.46,4.96-2.1,10.05-3.74,15.26-4.91l-1.02-5.48c-43.08,9.62-75.27,48.08-75.27,94.06,0,8.72,1.16,17.17,3.33,25.2,.58,2.13,1.22,4.24,1.94,6.31,.48,1.39,.99,2.78,1.54,4.14,6.25,15.7,16.52,29.37,29.52,39.74,10.09,8.05,21.82,14.11,34.62,17.6,8.1,2.21,16.62,3.39,25.42,3.39,14.63,0,28.51-3.26,40.93-9.1,13.46-6.32,25.22-15.67,34.4-27.16l-4.35-3.49c-8.69,10.89-19.76,19.65-32.42,25.6Z"/></g><g id="Testo___Overlay_copia_4"><g id="Testo"><path class="cls-1" d="M363.19,176.78c-.12-2.02,.95-3.09,2.86-3.09h10.59c1.9,0,2.86,1.07,2.98,2.98,.71,6.9,3.93,9.52,11.66,9.52h23.33c9.05,0,12.26-2.26,12.26-9.16s-3.09-8.45-11.07-9.05l-26.54-2.02c-18.33-1.43-25.59-7.38-25.59-23.09s7.74-24.87,28.44-24.87h21.78c18.8,0,27.25,8.45,28.09,25.23,.12,2.02-.95,3.09-2.86,3.09h-10.71c-1.9,0-2.86-1.07-2.98-2.98-.71-6.9-3.93-9.52-11.54-9.52h-21.54c-9.16,0-12.38,2.14-12.38,9.16,0,6.55,3.09,8.21,11.07,8.81l26.54,2.02c18.09,1.43,25.71,7.74,25.71,23.33s-7.74,24.87-28.56,24.87h-23.45c-18.92,0-27.25-8.45-28.09-25.23Z"/><path class="cls-1" d="M446.14,145.23v-4.67c0-.64,.19-1.09,.77-1.45l15.19-9.46c1.88-1.17,2.45-1.69,2.45-2.86,0-1.57-.69-1.93-2.53-1.93h-6.81c-1.45,0-2.26,.28-2.26,2.74v.16c0,.77-.42,1.21-1.15,1.21h-4.52c-.73,0-1.15-.2-1.15-.56v-.56c0-5.8,2.18-9.83,9.07-9.83h7c6.47,0,9.07,3.26,9.07,8.22s-1.84,6.24-7.23,9.46l-6.54,3.91h12.55c.73,0,1.15,.44,1.15,1.21v4.43c0,.77-.42,1.21-1.15,1.21h-22.77c-.73,0-1.15-.44-1.15-1.21Z"/><path class="cls-1" d="M526.6,199.75l-5.59-12.26h-48.08l-5.71,12.26c-.71,1.43-1.9,2.26-3.57,2.26h-12.02c-2.26,0-3.21-1.43-2.26-3.45l37.85-78.43c.71-1.43,1.78-2.14,3.45-2.14h12.62c1.67,0,2.74,.71,3.45,2.14l37.73,78.43c.95,2.02,0,3.45-2.26,3.45h-12.02c-1.67,0-2.86-.71-3.57-2.26Zm-11.78-25.83l-17.73-38.68-17.97,38.68h35.7Z"/><path class="cls-1" d="M548.39,173.09v-26.07c0-17.85,8.45-29.04,28.21-29.04h27.37c18.57,0,27.14,9.28,28.09,25.23,.12,2.02-.95,3.09-2.86,3.09h-10.71c-1.9,0-2.86-1.07-2.98-2.98-.71-7.74-4.17-9.52-11.54-9.52h-27.37c-8.21,0-11.66,2.26-11.66,12.62v27.25c0,10.24,3.69,12.5,11.66,12.5h27.37c7.97,0,11.66-2.26,11.66-12.5v-4.05h-20.47c-1.9,0-2.98-1.07-2.98-2.98v-8.57c0-1.9,1.07-2.98,2.98-2.98h34.04c1.9,0,2.98,1.07,2.98,2.98v15c0,17.73-8.45,28.92-28.21,28.92h-27.37c-19.76,0-28.21-11.19-28.21-28.92Z"/><path class="cls-1" d="M644.91,130.51v-9.74c0-1.77,1.07-2.77,2.98-2.77h9.76c1.9,0,2.98,1,2.98,2.77v9.74c0,1.77-1.07,2.77-2.98,2.77h-9.76c-1.9,0-2.98-1-2.98-2.77Zm0,68.73v-56.67c0-1.77,1.07-2.77,2.98-2.77h9.76c1.9,0,2.98,1,2.98,2.77v56.67c0,1.77-1.07,2.77-2.98,2.77h-9.76c-1.9,0-2.98-1-2.98-2.77Z"/><path class="cls-1" d="M762.92,149.29c1.9,0,2.97-1.07,2.97-2.97v-8.21c0-1.9-1.07-2.97-2.97-2.97h-24.28v-14.16c0-1.9-1.07-2.98-2.98-2.98h-4.88c-1.9,0-2.98,1.07-2.98,3.21-.12,12.62-1.43,13.81-9.76,13.93-.1,0-.18,.01-.27,.02-.09,0-.18-.02-.27-.02h-24.28v-14.16c0-1.9-1.07-2.98-2.98-2.98h-4.88c-1.9,0-2.98,1.07-2.98,3.21-.12,12.62-1.43,13.81-9.76,13.93-1.9,0-2.98,1.07-2.98,2.97v8.21c0,1.9,1.07,2.97,2.98,2.97h5v27.49c0,16.66,4.88,25.23,26.42,25.23h13.45c1.9,0,2.97-1.07,2.97-2.98v-8.33c0-1.9-1.07-2.98-2.97-2.98h-13.45c-8.45,0-10.83-2.14-10.83-9.28v-29.16h24.28c.1,0,.18-.01,.27-.02,.09,0,.18,.02,.27,.02h5v27.49c0,16.66,4.88,25.23,26.42,25.23h13.45c1.9,0,2.97-1.07,2.97-2.98v-8.33c0-1.9-1.07-2.98-2.97-2.98h-13.45c-8.45,0-10.83-2.14-10.83-9.28v-29.16h24.28Z"/><path class="cls-1" d="M771.68,183.09c0-13.57,5.12-18.57,21.3-20.23l24.99-2.5c2.86-.36,3.81-1.79,3.81-4.29,0-4.88-2.14-6.31-8.33-6.31h-33.44c-1.9,0-2.98-1.07-2.98-2.98v-8.69c0-1.9,1.07-2.97,2.98-2.97h33.8c17.14,0,23.68,6.07,23.68,19.64v44.27c0,1.9-1.07,2.98-2.98,2.98h-9.76c-1.9,0-2.97-1.07-2.97-2.98v-5.59c-3.09,5.71-7.86,8.57-18.21,8.57h-6.9c-15.95,0-24.99-5.48-24.99-18.92Zm39.51,4.76c7.85,0,10.59-2.62,10.59-10.24v-5.71l-26.18,2.62c-6.31,.59-8.09,2.38-8.09,7.02,0,4.28,3.09,6.31,9.04,6.31h14.64Z"/><path class="cls-1" d="M892.37,135.12c1.9,0,2.98,1.07,2.98,2.97v8.69c0,1.9-1.07,2.98-2.98,2.98h-17.14c-6.43,0-9.28,1.67-9.28,10.12v39.16c0,1.9-1.07,2.98-2.98,2.98h-9.76c-1.9,0-2.98-1.07-2.98-2.98v-60.94c0-1.9,1.07-2.97,2.98-2.97h9.76c1.9,0,2.98,1.07,2.98,2.97v4.76c2.86-5,8.09-7.74,17.26-7.74h9.16Z"/><path class="cls-1" d="M903.32,130.51v-9.74c0-1.77,1.07-2.77,2.98-2.77h9.76c1.9,0,2.98,1,2.98,2.77v9.74c0,1.77-1.07,2.77-2.98,2.77h-9.76c-1.9,0-2.98-1-2.98-2.77Zm0,68.73v-56.67c0-1.77,1.07-2.77,2.98-2.77h9.76c1.9,0,2.98,1,2.98,2.77v56.67c0,1.77-1.07,2.77-2.98,2.77h-9.76c-1.9,0-2.98-1-2.98-2.77Z"/><path class="cls-1" d="M984.24,135.12h9.76c1.9,0,2.97,1.07,2.97,2.97v60.94c0,1.9-1.07,2.98-2.97,2.98h-9.76c-1.9,0-2.98-1.07-2.98-2.98v-4.76c-2.86,5-8.09,7.74-17.26,7.74h-8.69c-19.04,0-24.64-9.4-24.64-26.42v-37.49c0-1.9,1.07-2.97,2.98-2.97h9.76c1.9,0,2.97,1.07,2.97,2.97v39.16c0,8.33,2.14,10.12,9.28,10.12h16.31c6.43,0,9.28-1.55,9.28-10.12v-39.16c0-1.9,1.07-2.97,2.98-2.97Z"/><path class="cls-1" d="M1005.32,199.04v-8.69c0-1.9,1.07-2.98,2.98-2.98h32.73c6.55,0,9.05-1.43,9.05-5.59s-1.79-5.24-8.09-5.95l-18.33-2.02c-14.88-1.67-19.76-7.38-19.76-19.76s7.62-18.92,23.92-18.92h31.9c1.9,0,2.98,1.07,2.98,2.97v8.69c0,1.9-1.07,2.98-2.98,2.98h-31.54c-5.95,0-8.69,1.31-8.69,5.83,0,3.93,1.67,5.12,7.14,5.71l17.97,2.02c16.66,2.02,21.3,8.09,21.3,20.11,0,13.45-7.5,18.57-24.99,18.57h-32.61c-1.9,0-2.98-1.07-2.98-2.98Z"/></g><g id="Overlay"><path class="cls-19" d="M443.29,177.14c0,16.07-7.74,24.88-28.57,24.88h-23.45c-18.92,0-27.26-8.45-28.09-25.23-.12-2.02,.95-3.09,2.86-3.09h10.59c1.88,0,2.83,1.04,2.97,2.9,0,.02,0,.05,0,.07,.71,6.9,3.93,9.52,11.66,9.52h23.33c9.05,0,12.26-2.26,12.26-9.16s-3.09-8.45-11.07-9.05l-8.74-.67-17.8-1.36c-12.68-.99-20.06-4.14-23.4-11.18,.67-11.62,10.32-20.85,22.11-20.85,.33,0,.65,0,.98,.02-6.57,.54-8.97,2.97-8.97,9.04,0,6.55,3.09,8.21,11.07,8.81l18.9,1.44,7.64,.58c18.09,1.43,25.71,7.74,25.71,23.33Z"/><path class="cls-10" d="M542.64,201.99l-13.31-.05c-1.24-.21-2.14-.92-2.73-2.2l-5.59-12.26h-48.08l-5.71,12.26,11.99-25.83h35.61l-17.68-38.58,7.9-17c.73,.34,1.28,.94,1.7,1.79l37.72,78.44c.89,1.88,.13,3.25-1.81,3.43Z"/><path class="cls-11" d="M632.17,158.1v15c0,17.73-8.45,28.92-28.2,28.92h-27.37c-19.76,0-28.21-11.19-28.21-28.92v-19.8c2.72-11.12,12.76-19.37,24.72-19.37,.23,0,.46,0,.69,0-6.21,.56-8.87,3.41-8.87,12.5v27.26c0,5.79,1.18,9.03,3.66,10.74,1.89,1.32,4.55,1.75,8.01,1.75h27.37c7.97,0,11.66-2.26,11.66-12.5v-4.05h-20.47c-1.9,0-2.98-1.07-2.98-2.98v-8.57c0-1.9,1.07-2.98,2.98-2.98h34.03c1.9,0,2.98,1.07,2.98,2.98Z"/><path class="cls-8" d="M647.89,133.28h9.76c1.9,0,2.98-1,2.98-2.77v-9.74c0-1.77-1.07-2.77-2.98-2.77h-9.76c-1.9,0-2.98,1-2.98,2.77v9.74c0,1.77,1.07,2.77,2.98,2.77Z"/><g id="tt"><path class="cls-7" d="M717.51,187.73h-13.45c-8.45,0-10.83-2.14-10.83-9.28v-28.66h-.38v26.99c0,16.29,4.66,24.85,25.01,25.22h.01c1.68-.13,2.62-1.18,2.62-2.96v-8.33c0-1.9-1.07-2.98-2.98-2.98Z"/><path class="cls-2" d="M762.92,187.73h-13.45c-8.45,0-10.83-2.14-10.83-9.28v-28.66h-.38v26.99c0,16.29,4.66,24.85,25.01,25.22h.01c1.68-.13,2.62-1.18,2.62-2.96v-8.33c0-1.9-1.07-2.98-2.98-2.98Z"/></g><path class="cls-3" d="M821.76,178.75c-.28,6.74-3.12,9.1-10.57,9.1h-14.64c-5.94,0-9.04-2.02-9.04-6.31,0-3.59,1.08-5.47,4.48-6.41,.11-.06,.22-.12,.32-.18-7.77,1.88-16.37,5.8-19.95,13.97,2.37,9.23,10.9,13.1,24.31,13.1h6.9c10.35,0,15.12-2.86,18.21-8.57,0,0,.2-10.95,.17-17.24l-.2,2.55Z"/><path class="cls-9" d="M871.52,150.05c-3.83,.76-5.57,3.23-5.57,9.83v39.16c0,1.9-1.07,2.98-2.98,2.98h-9.76c-1.9,0-2.98-1.07-2.98-2.98v-36.35c2.6-7.5,9.73-12.89,18.12-12.89,1.08,0,2.14,.09,3.17,.26Z"/><path class="cls-4" d="M906.29,133.28h9.76c1.9,0,2.98-1,2.98-2.77v-9.74c0-1.77-1.07-2.77-2.98-2.77h-9.76c-1.9,0-2.98,1-2.98,2.77v9.74c0,1.77,1.07,2.77,2.98,2.77Z"/><path class="cls-5" d="M981.42,136.96v63.21c-.11-.34-.16-.71-.16-1.14v-4.76c-2.86,5-8.09,7.74-17.26,7.74h-8.69c-19.04,0-24.64-9.4-24.64-26.42v-37.49c0-1.9,1.07-2.98,2.98-2.98h9.76c1.9,0,2.98,1.07,2.98,2.98v39.16c0,8.33,2.14,10.12,9.28,10.12h16.31c6.43,0,9.28-1.55,9.28-10.12v-39.16c0-.42,.05-.8,.16-1.14Z"/><path class="cls-6" d="M1065.89,183.45c0,13.45-7.49,18.57-24.99,18.57h-32.61c-1.9,0-2.98-1.07-2.98-2.98v-8.69c0-1.9,1.07-2.98,2.98-2.98h32.73c6.55,0,9.05-1.43,9.05-5.59s-1.79-5.24-8.09-5.95l-1.26-.14-17.07-1.88c-9.96-1.12-15.44-4.05-17.97-9.57,1.85-8.27,9.24-14.44,18.06-14.44,.61,0,1.21,.03,1.81,.09-4.14,.39-6.06,1.92-6.06,5.72s1.67,5.12,7.14,5.71l14.85,1.67,3.12,.35c16.66,2.02,21.3,8.09,21.3,20.11Z"/></g></g></g></svg>