<?xml version="1.0" encoding="UTF-8"?><svg id="Livello_2" xmlns="http://www.w3.org/2000/svg" xmlns:xlink="http://www.w3.org/1999/xlink" viewBox="0 0 1577.96 887.25"><defs><style>.cls-1{fill:#2a55f8;}.cls-2{fill:url(#Sfumatura_senza_nome_2);}.cls-3{fill:url(#Sfumatura_senza_nome_2-3);}.cls-4{fill:url(#Sfumatura_senza_nome_2-2);}.cls-5{fill:url(#Sfumatura_senza_nome_2-6);}.cls-6{fill:url(#Sfumatura_senza_nome_2-5);}.cls-7{fill:url(#Sfumatura_senza_nome_2-4);}.cls-8{fill:url(#Sfumatura_senza_nome_2-9);}.cls-9{fill:url(#Sfumatura_senza_nome_2-8);}.cls-10{fill:url(#Sfumatura_senza_nome_2-7);}.cls-11{fill:url(#Sfumatura_senza_nome_2-12);}.cls-12{fill:url(#Sfumatura_senza_nome_2-15);}.cls-13{fill:url(#Sfumatura_senza_nome_2-20);}.cls-14{fill:url(#Sfumatura_senza_nome_2-18);}.cls-15{fill:url(#Sfumatura_senza_nome_2-14);}.cls-16{fill:url(#Sfumatura_senza_nome_2-17);}.cls-17{fill:url(#Sfumatura_senza_nome_2-13);}.cls-18{fill:url(#Sfumatura_senza_nome_2-16);}.cls-19{fill:url(#Sfumatura_senza_nome_2-19);}.cls-20{fill:url(#Sfumatura_senza_nome_2-10);}.cls-21{fill:url(#Sfumatura_senza_nome_2-11);}</style><linearGradient id="Sfumatura_senza_nome_2" x1="623.73" y1="507.69" x2="514.62" y2="444.69" gradientUnits="userSpaceOnUse"><stop offset="0" stop-color="#2a55f8"/><stop offset="1" stop-color="#094fb5"/></linearGradient><linearGradient id="Sfumatura_senza_nome_2-2" x1="794.91" y1="506" x2="695.94" y2="448.86" xlink:href="#Sfumatura_senza_nome_2"/><linearGradient id="Sfumatura_senza_nome_2-3" x1="912.57" y1="505.4" x2="796.36" y2="438.31" xlink:href="#Sfumatura_senza_nome_2"/><linearGradient id="Sfumatura_senza_nome_2-4" x1="965.86" y1="408.68" x2="940.48" y2="394.03" xlink:href="#Sfumatura_senza_nome_2"/><linearGradient id="Sfumatura_senza_nome_2-5" x1="1063.82" y1="499.63" x2="999.55" y2="462.52" xlink:href="#Sfumatura_senza_nome_2"/><linearGradient id="Sfumatura_senza_nome_2-6" x1="1132.5" y1="499.63" x2="1068.23" y2="462.52" xlink:href="#Sfumatura_senza_nome_2"/><linearGradient id="Sfumatura_senza_nome_2-7" x1="1204.84" y1="510.75" x2="1145.66" y2="476.58" xlink:href="#Sfumatura_senza_nome_2"/><linearGradient id="Sfumatura_senza_nome_2-8" x1="1289.75" y1="489.33" x2="1247" y2="464.65" xlink:href="#Sfumatura_senza_nome_2"/><linearGradient id="Sfumatura_senza_nome_2-9" x1="1356.65" y1="408.68" x2="1331.28" y2="394.03" xlink:href="#Sfumatura_senza_nome_2"/><linearGradient id="Sfumatura_senza_nome_2-10" x1="1463.56" y1="490.94" x2="1364.68" y2="433.86" xlink:href="#Sfumatura_senza_nome_2"/><linearGradient id="Sfumatura_senza_nome_2-11" x1="1568.82" y1="514.17" x2="1482.7" y2="464.45" xlink:href="#Sfumatura_senza_nome_2"/><linearGradient id="Sfumatura_senza_nome_2-12" x1="313.97" y1="57.56" x2="557.49" y2="57.56" xlink:href="#Sfumatura_senza_nome_2"/><linearGradient id="Sfumatura_senza_nome_2-13" x1="525.84" y1="256.21" x2="594.22" y2="256.21" xlink:href="#Sfumatura_senza_nome_2"/><linearGradient id="Sfumatura_senza_nome_2-14" x1="313.97" y1="57.56" x2="557.49" y2="57.56" xlink:href="#Sfumatura_senza_nome_2"/><linearGradient id="Sfumatura_senza_nome_2-15" x1="536.08" y1="256.21" x2="594.22" y2="256.21" xlink:href="#Sfumatura_senza_nome_2"/><linearGradient id="Sfumatura_senza_nome_2-16" x1="324.13" y1="100.49" x2="506.68" y2="100.49" xlink:href="#Sfumatura_senza_nome_2"/><linearGradient id="Sfumatura_senza_nome_2-17" x1="481.74" y1="256.61" x2="539.36" y2="256.61" xlink:href="#Sfumatura_senza_nome_2"/><linearGradient id="Sfumatura_senza_nome_2-18" x1="334.31" y1="147.25" x2="466.22" y2="147.25" xlink:href="#Sfumatura_senza_nome_2"/><linearGradient id="Sfumatura_senza_nome_2-19" x1="437.64" y1="257.91" x2="484.5" y2="257.91" xlink:href="#Sfumatura_senza_nome_2"/><linearGradient id="Sfumatura_senza_nome_2-20" x1="344.47" y1="188.41" x2="418.79" y2="188.41" xlink:href="#Sfumatura_senza_nome_2"/></defs><g id="Logo_Completo_Gradiente_Blu"><g id="Testo_Overlay_copia_8"><g id="Testo"><path class="cls-1" d="M515.23,478.7c-.18-3.06,1.44-4.68,4.32-4.68h16.02c2.88,0,4.32,1.62,4.5,4.5,1.08,10.44,5.94,14.4,17.64,14.4h35.28c13.68,0,18.54-3.42,18.54-13.86s-4.68-12.78-16.74-13.68l-40.14-3.06c-27.72-2.16-38.7-11.16-38.7-34.92s11.7-37.62,43.02-37.62h32.94c28.44,0,41.22,12.78,42.48,38.16,.18,3.06-1.44,4.68-4.32,4.68h-16.2c-2.88,0-4.32-1.62-4.5-4.5-1.08-10.44-5.94-14.4-17.46-14.4h-32.58c-13.86,0-18.72,3.24-18.72,13.86,0,9.9,4.68,12.42,16.74,13.32l40.14,3.06c27.36,2.16,38.88,11.7,38.88,35.28s-11.7,37.62-43.2,37.62h-35.46c-28.62,0-41.22-12.78-42.48-38.16Z"/><path class="cls-1" d="M640.68,430.98v-7.07c0-.97,.29-1.64,1.16-2.19l22.98-14.31c2.84-1.77,3.7-2.56,3.7-4.32,0-2.38-1.04-2.92-3.82-2.92h-10.3c-2.2,0-3.41,.43-3.41,4.14v.24c0,1.16-.64,1.83-1.74,1.83h-6.83c-1.1,0-1.74-.3-1.74-.85v-.85c0-8.77,3.3-14.86,13.72-14.86h10.59c9.78,0,13.72,4.93,13.72,12.42s-2.78,9.44-10.94,14.31l-9.9,5.91h18.98c1.1,0,1.74,.67,1.74,1.83v6.7c0,1.16-.64,1.83-1.74,1.83h-34.43c-1.1,0-1.74-.67-1.74-1.83Z"/><path class="cls-1" d="M762.37,513.43l-8.46-18.54h-72.72l-8.64,18.54c-1.08,2.16-2.88,3.42-5.4,3.42h-18.18c-3.42,0-4.86-2.16-3.42-5.22l57.24-118.62c1.08-2.16,2.7-3.24,5.22-3.24h19.08c2.52,0,4.14,1.08,5.22,3.24l57.06,118.62c1.44,3.06,0,5.22-3.42,5.22h-18.18c-2.52,0-4.32-1.08-5.4-3.42Zm-17.82-39.06l-26.82-58.5-27.18,58.5h54Z"/><path class="cls-1" d="M795.31,473.12v-39.42c0-27,12.78-43.92,42.66-43.92h41.4c28.08,0,41.04,14.04,42.48,38.16,.18,3.06-1.44,4.68-4.32,4.68h-16.2c-2.88,0-4.32-1.62-4.5-4.5-1.08-11.7-6.3-14.4-17.46-14.4h-41.4c-12.42,0-17.64,3.42-17.64,19.08v41.22c0,15.48,5.58,18.9,17.64,18.9h41.4c12.06,0,17.64-3.42,17.64-18.9v-6.12h-30.96c-2.88,0-4.5-1.62-4.5-4.5v-12.96c0-2.88,1.62-4.5,4.5-4.5h51.48c2.88,0,4.5,1.62,4.5,4.5v22.68c0,26.82-12.78,43.74-42.66,43.74h-41.4c-29.88,0-42.66-16.92-42.66-43.74Z"/><path class="cls-1" d="M941.29,408.72v-14.73c0-2.68,1.62-4.18,4.5-4.18h14.76c2.88,0,4.5,1.51,4.5,4.18v14.73c0,2.68-1.62,4.18-4.5,4.18h-14.76c-2.88,0-4.5-1.51-4.5-4.18Zm0,103.95v-85.7c0-2.68,1.62-4.18,4.5-4.18h14.76c2.88,0,4.5,1.51,4.5,4.18v85.7c0,2.68-1.62,4.18-4.5,4.18h-14.76c-2.88,0-4.5-1.51-4.5-4.18Z"/><path class="cls-1" d="M1119.76,437.12c2.88,0,4.5-1.62,4.5-4.5v-12.42c0-2.88-1.62-4.5-4.5-4.5h-36.72v-21.42c0-2.88-1.62-4.5-4.5-4.5h-7.38c-2.88,0-4.5,1.62-4.5,4.86-.18,19.08-2.16,20.88-14.76,21.06-.15,0-.27,.02-.41,.03-.14,0-.27-.03-.41-.03h-36.72v-21.42c0-2.88-1.62-4.5-4.5-4.5h-7.38c-2.88,0-4.5,1.62-4.5,4.86-.18,19.08-2.16,20.88-14.76,21.06-2.88,0-4.5,1.62-4.5,4.5v12.42c0,2.88,1.62,4.5,4.5,4.5h7.56v41.58c0,25.2,7.38,38.16,39.96,38.16h20.34c2.88,0,4.5-1.62,4.5-4.5v-12.6c0-2.88-1.62-4.5-4.5-4.5h-20.34c-12.78,0-16.38-3.24-16.38-14.04v-44.1h36.72c.15,0,.27-.02,.41-.03,.14,0,.27,.03,.41,.03h7.56v41.58c0,25.2,7.38,38.16,39.96,38.16h20.34c2.88,0,4.5-1.62,4.5-4.5v-12.6c0-2.88-1.62-4.5-4.5-4.5h-20.34c-12.78,0-16.38-3.24-16.38-14.04v-44.1h36.72Z"/><path class="cls-1" d="M1133.01,488.24c0-20.52,7.74-28.08,32.22-30.6l37.8-3.78c4.32-.54,5.76-2.7,5.76-6.48,0-7.38-3.24-9.54-12.6-9.54h-50.58c-2.88,0-4.5-1.62-4.5-4.5v-13.14c0-2.88,1.62-4.5,4.5-4.5h51.12c25.92,0,35.82,9.18,35.82,29.7v66.96c0,2.88-1.62,4.5-4.5,4.5h-14.76c-2.88,0-4.5-1.62-4.5-4.5v-8.46c-4.68,8.64-11.88,12.96-27.54,12.96h-10.44c-24.12,0-37.8-8.28-37.8-28.62Zm59.76,7.2c11.88,0,16.02-3.96,16.02-15.48v-8.64l-39.6,3.96c-9.54,.9-12.24,3.6-12.24,10.62,0,6.48,4.68,9.54,13.68,9.54h22.14Z"/><path class="cls-1" d="M1315.52,415.7c2.88,0,4.5,1.62,4.5,4.5v13.14c0,2.88-1.62,4.5-4.5,4.5h-25.92c-9.72,0-14.04,2.52-14.04,15.3v59.22c0,2.88-1.62,4.5-4.5,4.5h-14.76c-2.88,0-4.5-1.62-4.5-4.5v-92.16c0-2.88,1.62-4.5,4.5-4.5h14.76c2.88,0,4.5,1.62,4.5,4.5v7.2c4.32-7.56,12.24-11.7,26.1-11.7h13.86Z"/><path class="cls-1" d="M1332.09,408.72v-14.73c0-2.68,1.62-4.18,4.5-4.18h14.76c2.88,0,4.5,1.51,4.5,4.18v14.73c0,2.68-1.62,4.18-4.5,4.18h-14.76c-2.88,0-4.5-1.51-4.5-4.18Zm0,103.95v-85.7c0-2.68,1.62-4.18,4.5-4.18h14.76c2.88,0,4.5,1.51,4.5,4.18v85.7c0,2.68-1.62,4.18-4.5,4.18h-14.76c-2.88,0-4.5-1.51-4.5-4.18Z"/><path class="cls-1" d="M1454.46,415.7h14.76c2.88,0,4.5,1.62,4.5,4.5v92.16c0,2.88-1.62,4.5-4.5,4.5h-14.76c-2.88,0-4.5-1.62-4.5-4.5v-7.2c-4.32,7.56-12.24,11.7-26.1,11.7h-13.14c-28.8,0-37.26-14.22-37.26-39.96v-56.7c0-2.88,1.62-4.5,4.5-4.5h14.76c2.88,0,4.5,1.62,4.5,4.5v59.22c0,12.6,3.24,15.3,14.04,15.3h24.66c9.72,0,14.04-2.34,14.04-15.3v-59.22c0-2.88,1.62-4.5,4.5-4.5Z"/><path class="cls-1" d="M1486.34,512.35v-13.14c0-2.88,1.62-4.5,4.5-4.5h49.5c9.9,0,13.68-2.16,13.68-8.46s-2.7-7.92-12.24-9l-27.72-3.06c-22.5-2.52-29.88-11.16-29.88-29.88s11.52-28.62,36.18-28.62h48.24c2.88,0,4.5,1.62,4.5,4.5v13.14c0,2.88-1.62,4.5-4.5,4.5h-47.7c-9,0-13.14,1.98-13.14,8.82,0,5.94,2.52,7.74,10.8,8.64l27.18,3.06c25.2,3.06,32.22,12.24,32.22,30.42,0,20.34-11.34,28.08-37.8,28.08h-49.32c-2.88,0-4.5-1.62-4.5-4.5Z"/></g><g id="Overlay"><path class="cls-2" d="M636.37,479.24c0,24.3-11.7,37.62-43.2,37.62h-35.46c-28.62,0-41.22-12.78-42.48-38.16-.18-3.06,1.44-4.68,4.32-4.68h16.02c2.84,0,4.28,1.58,4.49,4.39,.01,.03,.01,.07,.01,.11,1.08,10.44,5.94,14.4,17.64,14.4h35.28c13.68,0,18.54-3.42,18.54-13.86s-4.68-12.78-16.74-13.68l-13.22-1.01-26.92-2.05c-19.17-1.49-30.33-6.26-35.39-16.91,1.02-17.58,15.6-31.53,33.44-31.53,.5,0,.99,.01,1.48,.03-9.94,.82-13.57,4.49-13.57,13.67,0,9.9,4.68,12.42,16.74,13.32l28.58,2.18,11.56,.88c27.36,2.16,38.88,11.7,38.88,35.28Z"/><path class="cls-4" d="M786.62,516.83l-20.13-.07c-1.87-.32-3.24-1.39-4.13-3.32l-8.45-18.54h-72.72l-8.64,18.54,18.14-39.06h53.85l-26.74-58.35,11.94-25.71c1.1,.52,1.93,1.42,2.57,2.7l57.05,118.62c1.34,2.85,.19,4.92-2.74,5.19Z"/><path class="cls-3" d="M922.02,450.44v22.68c0,26.82-12.78,43.74-42.65,43.74h-41.4c-29.88,0-42.66-16.92-42.66-43.74v-29.94c4.12-16.82,19.3-29.3,37.39-29.3,.35,0,.7,0,1.05,.01-9.39,.84-13.42,5.16-13.42,18.91v41.22c0,8.76,1.79,13.66,5.53,16.25,2.86,2,6.88,2.65,12.11,2.65h41.4c12.05,0,17.63-3.42,17.63-18.9v-6.12h-30.95c-2.88,0-4.5-1.62-4.5-4.5v-12.96c0-2.88,1.62-4.5,4.5-4.5h51.47c2.88,0,4.5,1.62,4.5,4.5Z"/><path class="cls-7" d="M945.79,412.9h14.76c2.88,0,4.5-1.51,4.5-4.18v-14.73c0-2.68-1.62-4.18-4.5-4.18h-14.76c-2.88,0-4.5,1.51-4.5,4.18v14.73c0,2.68,1.62,4.18,4.5,4.18Z"/><g id="tt"><path class="cls-6" d="M1051.08,495.26h-20.34c-12.78,0-16.38-3.24-16.38-14.04v-43.34h-.58v40.82c0,24.64,7.05,37.58,37.82,38.14h.02c2.54-.19,3.96-1.79,3.96-4.48v-12.6c0-2.88-1.62-4.5-4.5-4.5Z"/><path class="cls-5" d="M1119.76,495.26h-20.34c-12.78,0-16.38-3.24-16.38-14.04v-43.34h-.58v40.82c0,24.64,7.05,37.58,37.82,38.14h.02c2.54-.19,3.96-1.79,3.96-4.48v-12.6c0-2.88-1.62-4.5-4.5-4.5Z"/></g><path class="cls-10" d="M1208.74,481.68c-.42,10.19-4.72,13.76-15.98,13.76h-22.14c-8.99,0-13.67-3.06-13.67-9.54,0-5.43,1.63-8.27,6.78-9.7,.17-.09,.33-.18,.49-.27-11.75,2.84-24.75,8.77-30.18,21.12,3.59,13.96,16.49,19.81,36.76,19.81h10.44c15.66,0,22.86-4.32,27.54-12.96,0,0,.3-16.56,.26-26.07l-.3,3.85Z"/><path class="cls-9" d="M1283.99,438.28c-5.79,1.15-8.43,4.88-8.43,14.86v59.22c0,2.88-1.62,4.5-4.5,4.5h-14.76c-2.88,0-4.5-1.62-4.5-4.5v-54.98c3.93-11.35,14.71-19.5,27.4-19.5,1.63,0,3.23,.13,4.79,.4Z"/><path class="cls-8" d="M1336.59,412.9h14.76c2.88,0,4.5-1.51,4.5-4.18v-14.73c0-2.68-1.62-4.18-4.5-4.18h-14.76c-2.88,0-4.5,1.51-4.5,4.18v14.73c0,2.68,1.62,4.18,4.5,4.18Z"/><path class="cls-20" d="M1450.2,418.48v95.6c-.16-.51-.24-1.08-.24-1.72v-7.2c-4.32,7.56-12.24,11.7-26.1,11.7h-13.14c-28.8,0-37.26-14.22-37.26-39.96v-56.7c0-2.88,1.62-4.5,4.5-4.5h14.76c2.88,0,4.5,1.62,4.5,4.5v59.22c0,12.6,3.24,15.3,14.04,15.3h24.66c9.72,0,14.04-2.34,14.04-15.3v-59.22c0-.64,.08-1.21,.24-1.72Z"/><path class="cls-21" d="M1577.95,488.78c0,20.34-11.33,28.08-37.79,28.08h-49.32c-2.88,0-4.5-1.62-4.5-4.5v-13.14c0-2.88,1.62-4.5,4.5-4.5h49.5c9.9,0,13.68-2.16,13.68-8.46s-2.7-7.92-12.24-9l-1.9-.21-25.82-2.85c-15.07-1.69-23.35-6.12-27.17-14.48,2.8-12.5,13.97-21.84,27.31-21.84,.92,0,1.83,.04,2.73,.13-6.26,.59-9.17,2.91-9.17,8.65s2.52,7.74,10.8,8.64l22.46,2.53,4.72,.53c25.19,3.06,32.21,12.24,32.21,30.42Z"/></g></g><g id="Logo_Definitivo_copia_4"><g id="Wireless"><path class="cls-11" d="M527.86,115.12c-10.17-14.32-22.08-27.25-35.59-38.65-21.39-18.02-45.86-31.38-72.77-39.7-20.48-6.33-41.2-9.34-61.6-9.34-.82,0-1.64,0-2.46,.02-.82,0-1.64,.02-2.46,.04-.78,.02-1.55,.04-2.33,.07-.08,0-.17,0-.25,.01-.77,.03-1.55,.06-2.33,.1-.65,.03-1.3,.06-1.95,.1-.07,0-.13,.01-.19,.01-.46,.03-.91,.05-1.35,.08-.04,0-.09,0-.14,.01-8.56,.55-17.04,1.64-25.4,3.23l-5.08-26.94c14.38-2.74,29.08-4.15,43.95-4.15,23.07,0,46.52,3.41,69.68,10.57,30.44,9.4,58.14,24.52,82.34,44.93,18.64,15.72,34.58,34.03,47.54,54.59l-1.42,.24c-9.38,1.6-18.77,3.19-28.2,4.79Z"/><path class="cls-17" d="M583.64,306.23c-7.94,25.67-19.93,49.41-35.75,70.74l-22.05-16.31c5.14-6.93,9.82-14.15,14.04-21.63h0c.44-.79,.88-1.58,1.31-2.37,.02-.04,.04-.08,.07-.12,.43-.79,.86-1.58,1.28-2.38,.41-.76,.8-1.52,1.19-2.29,.06-.11,.12-.21,.17-.32,.39-.77,.78-1.55,1.16-2.32,.38-.77,.76-1.54,1.13-2.32,.35-.72,.69-1.45,1.03-2.18,.17-.37,.35-.75,.52-1.12,.21-.46,.42-.91,.62-1.37,.16-.34,.31-.69,.46-1.04,.34-.77,.67-1.53,1-2.3,.33-.77,.66-1.55,.98-2.33,.35-.85,.7-1.7,1.03-2.55,.02-.03,.03-.05,.03-.08,.27-.66,.53-1.33,.78-2,.14-.35,.27-.7,.4-1.04,.67-1.75,1.32-3.51,1.93-5.29,.21-.61,.43-1.22,.63-1.83,.36-1.05,.71-2.11,1.05-3.17,.27-.82,.53-1.65,.78-2.48,8.32-26.91,11.1-54.65,8.29-82.48-1.79-17.63-5.76-34.81-11.86-51.32,.22-.19,.41-.42,.56-.67,5.7-9.48,11.36-18.87,16.99-28.22,11.61,24.48,18.86,50.48,21.59,77.44,3.19,31.5,.04,62.9-9.37,93.34Z"/><path class="cls-15" d="M556.07,110.33c-9.38,1.6-18.77,3.19-28.2,4.79-10.17-14.32-22.08-27.25-35.59-38.65-21.39-18.02-45.86-31.38-72.77-39.7-20.48-6.33-41.2-9.34-61.6-9.34-.82,0-1.64,0-2.46,.02-.82,0-1.64,.02-2.46,.04-.78,.02-1.56,.04-2.33,.07-.08,0-.17,0-.25,.01-.77,.03-1.55,.06-2.33,.1-.65,.03-1.31,.07-1.95,.1-.07,0-.13,.01-.19,.01-.46,.03-.91,.05-1.35,.08-.04,0-.09,0-.14,.01-14.68,.95-27.75-9.25-30.48-23.71,14.38-2.74,29.08-4.15,43.95-4.15,23.07,0,46.52,3.41,69.68,10.57,30.44,9.4,58.14,24.52,82.34,44.93,18.64,15.72,34.58,34.03,47.54,54.59l-1.42,.24Z"/><path class="cls-12" d="M583.64,306.23c-7.94,25.67-19.93,49.41-35.75,70.74-7.69-5.68-11.82-14.49-11.82-23.48,0-4.93,1.24-9.9,3.81-14.46h0c.44-.79,.88-1.58,1.31-2.37,.02-.04,.04-.08,.07-.12,.43-.79,.86-1.58,1.28-2.38,.41-.76,.8-1.52,1.19-2.29,.06-.11,.12-.21,.17-.32,.39-.77,.78-1.55,1.16-2.32,.38-.77,.76-1.54,1.13-2.32,.35-.72,.69-1.45,1.03-2.18,.17-.37,.35-.75,.52-1.12,.21-.46,.42-.91,.62-1.37,.16-.35,.31-.69,.46-1.04,.34-.77,.67-1.53,1-2.3,.33-.77,.66-1.55,.98-2.33,.35-.85,.7-1.7,1.03-2.55,.02-.03,.03-.05,.03-.08,.27-.66,.53-1.33,.78-2,.14-.35,.27-.7,.4-1.04,.67-1.75,1.32-3.51,1.93-5.29,.21-.61,.43-1.22,.63-1.83,.36-1.05,.71-2.11,1.05-3.17,.27-.82,.53-1.65,.78-2.48,8.32-26.91,11.1-54.65,8.29-82.48-1.79-17.63-5.76-34.81-11.86-51.32,.22-.19,.41-.42,.56-.67,5.7-9.48,11.36-18.87,16.99-28.22,11.61,24.48,18.86,50.48,21.59,77.44,3.19,31.5,.04,62.9-9.37,93.34Z"/><path class="cls-18" d="M498.05,134.29l-13.69,10.19c-.66,.49-1.24,1.05-1.72,1.65-19.46-27.06-47.01-46.97-79.33-56.96-24.36-7.53-49.68-8.89-74.09-4.22l-5.08-26.91c5.14-.98,10.34-1.73,15.58-2.26,24.2-2.45,48.32-.04,71.69,7.2,23.38,7.22,44.65,18.84,63.25,34.51,12.24,10.32,22.95,22.08,32.03,35.14-2.97-.78-6.15-.18-8.63,1.66Z"/><path class="cls-16" d="M531.24,290.04c-6.2,20.07-15.6,38.31-27.46,54.32l-22.04-16.3c10.06-13.59,18.03-29.07,23.31-46.12,9.12-29.5,9.18-60.38,.48-89.37,.54-.3,1.03-.63,1.49-.93,.49-.33,.96-.65,1.32-.8,.19-.08,.37-.18,.54-.3l3.72-2.68c4.56-3.27,8.25-7.69,10.67-12.77l2.97-6.23c6.38,15.83,10.48,32.41,12.2,49.48,2.45,24.2,.04,48.32-7.2,71.69Z"/><path class="cls-14" d="M442.53,184.79c-12.61-20.77-32.08-36-55.42-43.22-15.7-4.85-32-5.72-47.72-2.71l-5.07-26.93c19.65-3.75,40.48-2.87,60.9,3.43,30.88,9.55,55.51,29.89,71.01,55.62-5.93,3.47-11.86,6.92-17.81,10.38-.67,.39-1.34,.78-2.01,1.17l-1.23,.71c-.88,.51-1.76,1.03-2.65,1.54Z"/><path class="cls-19" d="M478.84,273.84c-4.33,14.01-10.89,26.74-19.16,37.91l-22.04-16.29c6.57-8.86,11.64-18.87,15-29.72,3.2-10.37,4.67-20.99,4.43-31.54,6.81-6.09,12.75-13.43,17.92-22.1,1.74-2.92,3.44-5.64,5.27-8.02,5.9,22.2,5.85,46.25-1.42,69.77Z"/><path class="cls-13" d="M395.05,212.28c-5.64-8.76-14.09-15.19-24.14-18.3-7.02-2.17-14.32-2.56-21.36-1.21l-5.08-26.96c11.38-2.17,23.18-1.54,34.54,1.97,16.69,5.16,30.64,15.98,39.78,30.72-7.85,4.52-15.81,9.13-23.73,13.79h0Z"/></g><path id="Centauro" class="cls-1" d="M580.45,698.89c1.37,6.92-.29,12.22-4.61,17.67-6.16,7.77-8.5,17.54-11.61,26.74-2.07,6.14-4.97,10.84-11.41,11.88-6.13,.98-9.94,4.5-13.38,9.12-2.87,3.85-6.17,7.37-10.37,9.83-7.61,4.48-13.71,1.59-14.8-7.2-.32-2.58,.03-5.32,.53-7.9,1.57-8.13,2.58-16.28,2.32-24.58-.21-6.9,1.71-12.67,8.74-15.51,2.5-1,3.46-2.89,3.98-5.47,3.69-18.16,9.35-35.87,10.53-54.6,.9-14.35,.96-28.19-6.8-40.95-2.9-4.77-6.54-8.2-12.38-9.1-7.84-1.21-15.51-3.22-23.03-6.52-.58,3.59,1.53,5.81,3.4,7.08,10.03,6.82,15.4,17.26,21.92,26.88,3.13,4.62,3.5,8.02-.09,12.81-3.71,4.96-7.59,9.89-10.07,15.93-2.74,6.66-9.63,8.26-16.25,7.66-7.12-.64-11.83,1.9-16.36,7.34-10.02,12.06-23.28,20.17-36.86,27.6-4.98,2.73-9.2,5.63-12.46,10.64-8.24,12.63-21.7,13.91-32.36,3.36-3.38-3.35-6.57-4.54-10.49-1.85-8.21,5.63-15.08,3.23-23.56-.92-10.01-4.9-19.82-9.92-29.29-15.77-5.81-3.59-7.7-8.06-3.98-13.94,7.32-11.55,17.24-20.39,30.36-24.73,7.36-2.43,13.82-2.8,20.85,4.26,5.03,5.05,10.42,9.09,12.24,16.08,11.93-4.81,23.05-10.68,35.92-11.01,2.81-.07,5.33-1.32,7.07-3.32,6.82-7.81,15.73-12.57,24.54-17.55,3.99-2.25,7.86-5.15,7.48-10.43-.37-5.04-4.69-6.85-8.59-8.53-14.26-6.16-24.52-16.65-32.57-29.6-1.6-2.57-2.7-5.77-6.01-1.33-15.75,21.14-38.96,27.53-63.23,31.74-27.13,4.7-54.47,5.82-81.94,4.7-8.5-.35-17.01-.64-25.41,1.57-4.01,1.05-6.72,3-7.61,7.15-1,4.64-3.21,8.55-7.51,10.78-7.26,3.77-11.49,9.86-14.78,17.14-4.39,9.71-10.03,18.73-16.73,27.11-9.45,11.8-21.38,18.94-36.37,21-2.53,.35-6.02-.27-6.68,2.99-.56,2.79,2.73,3.57,4.59,4.86,9.18,6.39,18.42,12.72,26.33,20.68,2.64,2.66,5.59,2.65,8.8,2.56,11.44-.32,20.04,4.34,25.46,14.56,.87,1.63,1.45,4.22,3.37,4.12,7.96-.41,12.64,7.38,20.5,7.63,4.53,.14,7.92,4.31,8.19,8.67,.39,6.32,3.82,10.05,8.04,13.94,9.52,8.78,8.55,17.91-2.72,24.52-15.02,8.81-30.21,6.2-45.21-.31-2.85-1.24-4.79-3.99-4.65-6.99,.25-5.35-2.87-8.04-6.75-10.55-.21,.49-.58,.92-.57,1.35,.02,3.16,3.29,7.73-.87,9.02-3.23,1-5.27-3.83-6.77-6.81-10.62-20.95-25.62-37.7-48.01-50.2,4.29,18.51,6.29,36.13,21.25,48.4,2.88,2.36,5.91,4.68,8.22,7.55,5.43,6.71,12.34,10.69,20.57,12.9,5.42,1.46,10.53,3.78,14.67,7.78,3.61,3.5,11.58,33.33,10.16,38.16-1.79,6.08-5.7,9.1-12,7.11-4.55-1.43-8.69-1.22-13.2,.12-8.32,2.45-16.44,.27-24.22-2.56-5.42-1.98-6.61-7.21-7.4-12.36-.48-3.06,.87-6.33-1-9.25-2.52,.03-2.89,2.24-3.81,3.65-2.16,3.3-3.39,2.93-6.61,.41-20.91-16.38-30.47-38.99-36.38-63.82-3.56-14.98-12.88-26.71-22.2-38.39-4.65-5.82-9.7-11.36-13.26-17.96-1.89-3.49-4.08-4.38-7.76-2.72-8.49,3.83-17.39,6.85-25.57,11.24-18.38,9.87-25.26,27.27-28.31,46.55-2.64,16.75-2.16,33.7-2.26,50.85-7.58-14.18-15.95-28.04-17.47-44.38-.71-7.6-1.42-15.24-.92-23.06,1.93-29.92,18.99-50.6,40.7-68.48,8.21-6.76,18.82-8.83,28.74-11.51,34.12-9.25,35.92-39.88,28.36-64-2.17-6.92-8.1-11.72-14.68-15.14-12.35-6.42-25.41-11.04-38.87-14.35-17.03-4.18-28.36-16.26-39.97-27.97-1.74-1.75-3.24-4.78-3.13-7.15,.49-10.84-2.69-20.9-5.45-31.12-.66-2.47-1.04-5.64-.06-7.83,4.65-10.38,4.38-20.62,2.29-31.69-2.01-10.63,3.75-19.55,11.3-26.92,7.21-7.03,15.72-1.84,23.45-1.67,7.34,.16,14.97,.86,22.01-.07,9.29-1.22,16.13,1.39,22.5,7.22,8.25,7.54,16.02,15.62,25.03,22.3,7.74,5.74,11.74,5.63,19.38-.02,20.57-15.22,42.56-25.98,69.29-23.92,11.91,.92,23.95-.05,35.93,.19,2.29,.04,4.04-.29,5.25-1.08,4.56-2.97,9.88-4.57,15.26-5.35,12.64-1.83,31.69-5.53,47.05-12.5,5.32-2.42,11.16-3.17,17-3.19,1.23,0,2.4-.67,3.21-1.98,5.51-8.95,12.64-16.67,18.14-25.57,.76-1.22,.43-3.12,.69-5.41-.46-1.66-.61-4.24-1.8-6.17-8.13-13.17-17.07-25.71-30.11-34.58-1.52-1.04-3.16-3.04-5.04-3.26l-.13-.27-33.43,5.42c-.83,5.56-1.75,11.01-4.45,15.84-.63,1.13-1.36,2.23-2.21,3.28-1.15,1.42-2.25,3.4-4.25,3.3-2.7-.12-1.75-2.79-2.31-4.38-1.14-3.24-2.2-6.49-6.34-7.92-1.95,7.57,.49,14.26,3.72,21.9-8.87-1.94-13.78-7.06-17.3-13.6-2.39-4.44-3.71-5.72-7.37-.68-11.39,15.69-27.49,22.92-46.53,24.1-5.81,.36-11.73-.61-17.4,1.55-4.59,1.75-9.08,3.67-9.94,9.24-.87,5.58,4.98,5.28,8.14,8.49-6.02,2.51-11.7,4.08-17.69,2.72-6.55-1.49-9.92-6.04-9.87-12.74,.09-13.37,10.51-27.81,23.48-32.38,5.35-1.89,9.74-5.02,15.58-9.48-7.02,.82-12.2,.69-17.34-.43-2.11-.46-4.32-.55-6.18,.76-8.62,6.12-18.3,9.58-28.55,11.8-2.59,.56-5.14,1.84-6.71,4.09-4.3,6.2-9.98,10.98-15.47,16.03-6.27,5.78-5.51,8.85,2.5,11.45,5.91,1.92,11.18,4.94,16.35,8.24,2,1.28,3.78,3.2,.12,4.39-15.09,4.88-43.47-1.59-49.69-21.38-3.06-9.73-1.75-18.63,4.97-26.14,5.3-5.92,11.33-11.24,17.37-16.43,3.1-2.66,4.5-5.42,4.65-9.52,.69-18.78,7.66-28.14,25.69-33.95,5.37-1.73,8.7-4.65,10.55-9.8,1.61-4.5,3.22-9.01,6.41-12.77,1.54-1.82,6.31-3.08,1.82-6.5-3.63-2.75-7.55-5.91-11.96-1.5-1.62,1.62-2.39,4.08-3.66,6.09-.9,1.42-.42,4.31-3.1,3.88-2.22-.36-2.07-2.86-2.55-4.55-3.59-12.52,.25-20.6,12.16-23.23,9.26-2.05,15.88-7.17,21.17-14.43,4.51-6.19,8.55-12.73,12.57-20.29-11.87,6.78-22.76-.41-34.44-1.03,2.39-6.38,7.77-7.82,13.31-8.07,5.28-.24,8.25-2.36,10.09-7.26,2.36-6.34,7.17-10.54,13.58-12.65,7.14-2.35,13.28-6.58,19.88-9.87,6.6-3.29,9.96-8.05,13.09-14.03,13.36-25.49,32.7-42.35,63.07-43.29,6.24-.19,11.74-3.03,16.67-6.99,4.8-3.84,9.79-7.56,16.52-6.77,.41,.05,.77,.05,1.1,.03,1.22,.49,5.44,2.71,8.66,10.61,.16,.39,.37,.81,.62,1.26,.22,.64,.47,1.29,.75,1.94,2.58,6.03,4.1,11.73,10.68,14.68,1.94,.87,3.63,3.31,4.44,5.4,1.97,5.04,5.45,8.24,10.02,10.87,3.31,1.91,6.63,3.74,4.38,9.38-.99,2.47-.71,4.38,.41,5.46l.3,11.04,.06,.02c-.07,1.54,.49,3.27,1.61,5.21,3.58,6.22,1.11,10.07-5,12.35-2.11,.78-4.33,1.27-6.61,1.93,3.74,2.12,6.91,3.38,10.98,.33,3.05-2.29,6.85-3.42,10.62-3.32,12.63-5.59,24.69-12.35,36.6-19.48,13.56-8.12,27.27-16,40.97-23.89,6.68-3.84,13.36-7.69,20.02-11.57,1.08-.63,2.17-1.26,3.25-1.89,8.96-5.21,17.91-10.43,26.85-15.65,1.71-3.15,3-6.8,4.06-10.87l2.51-6.76c.24-.29,.43-.61,.59-1,.43-1.12,1.23-2.05,2.19-2.77l13.68-10.19c1.94-1.44,4.46-1.84,6.76-1.08,2.62,.86,5.42,1.18,8,.83,2.56-.34,5.13,.45,6.95,2.28l.2,.2c.04,.44,.07,.73,.1,1.16,.06-.08,.13-.16,.19-.25,3.57-5.08,3.97-11.35,1.14-18.93-.15-.42-.22-.87-.48-1.91,20.33-3.46,40.51-6.88,60.69-10.31,.23,.29,.46,.57,.7,.86-10.56,17.53-21.12,35.07-31.86,52.9-1.21-1.02-2.1-1.71-2.93-2.47-6.42-5.88-15.09-6.96-22.22-2.25-.07,1.08-.24,2.17-.5,3.28-.19,.81-.33,1.61-.42,2.4l-.35,.48-4.87,10.22c-2.23,4.67-5.6,8.7-9.8,11.72l-3.72,2.68c-1.26,.53-2.45,1.67-3.7,2.15-1.73,.67-3.65,1.6-5.38,1.54-13.34-.41-19.71,8.87-25.57,18.69-9.55,16.02-22.41,28.2-39.72,35.59-5.16,2.2-9.77,5.59-13.21,10.08-5.49,7.15-12.51,12.09-20.41,16.25-4.26,2.24-11.83,2.8-11.59,8.17,.09,2.12,1.04,3.77,2.45,5.14,3.5,3.41,6.1,7.63,7.91,12.17,1.04,2.6,2.02,5.13,2.82,7.34,.21,1.01,.58,2.02,1.05,2.99,.01,.03,.02,.07,.03,.09,.26,.77,.84,1.65,1.69,2.61,.95,1.18,2.06,2.27,2.99,3.47,5.76,7.39,11.29,14.89,11.63,24.84,.12,3.36,1.66,6.08,3.89,8.52,2.6,2.83,4.17,6.1,4.27,10.06,.04,1.56-.02,3.7,.92,4.59,8.47,8.03,8.8,18.81,10.49,29.24,.88,5.37,4.09,9.88,7.59,13.88,5.77,6.59,8.3,14.33,8.28,22.76-.04,15.29,5.04,27.94,16.86,37.97,12.11,10.27,17.53,23.3,16.96,39.51-.59,16.92,15.35,42.65,34.17,47.81,2.29,.63,4.74,1.35,6.62,2.72,13.25,9.62,25.97,19.77,40.94,27.08,9.02,4.4,11.02,20.01,4.86,32.9-4.54,9.52-4.11,18.19-3.22,28.26,1.63,18.42,5.99,36.19,9.53,54.16Z"/></g></g></svg>